<mxfile host="app.diagrams.net" modified="2023-12-11T09:35:38.267Z" agent="Mozilla/5.0 (Windows NT 10.0; Win64; x64; rv:120.0) Gecko/20100101 Firefox/120.0" etag="V_ILXpwSv5Is3_gEQx46" version="22.1.7" type="device">
  <diagram name="PÃ¡gina-1" id="7xlI9sjndQvcLAPFm6-x">
    <mxGraphModel dx="1816" dy="520" grid="1" gridSize="10" guides="1" tooltips="1" connect="1" arrows="1" fold="1" page="1" pageScale="1" pageWidth="827" pageHeight="1169" math="0" shadow="0">
      <root>
        <mxCell id="0" />
        <mxCell id="1" parent="0" />
        <mxCell id="WngwBCl97LLkA2d_fZeR-88" value="" style="shape=image;verticalLabelPosition=bottom;labelBackgroundColor=default;verticalAlign=top;aspect=fixed;imageAspect=0;image=data:image/png,iVBORw0KGgoAAAANSUhEUgAAA1EAAAE9CAYAAADqLOiiAAALFXpUWHRSYXcgcHJvZmlsZSB0eXBlIGV4aWYAAHjapZhpdiM5DoT/5ynmCNzA5TgkSL43N5jjzwdm2paXqu7qlspKVS4giAACAV3rf//d1394RS/1SlJqbjk7XqmlFjpfqrtf/Xx6l87neYl38Tn76fwV5/M1uPuW+zZX8330b+efB96OvvNNXgxVfS6Mzxdauo+hfjH0LBTNo8CX+Rhqj6EY7gv+MdDvbbncanndwlj38Xn+DgN/l33oOradf1b7+v9UiN4UTsYQVuQ0nzGG24Fof/GKnQvhfBIOu4nvIRY+Y8yPJwTkpzi9vxoebXM1/XjTJ1Tev31BS/YTo69opfDcEr8EOb8ffzx/efkZlRP6l5VTfU+TT+eJ8bg9+hJ9+9t71n32zC56yoQ6P5t62+L5xn0YSbZ0vXAtu8KfYKKcd+NdyWolFaZTVhx8bz6AxPbJT9/99usc1SsuprCuUPgSgoZ4TtZYQgsaDb9kb79DiS3OWMFSD+wphndf/Fm2Ob3OapWVp+fW4DFm6fDH7+tPH9jbSsF7iyXQ+xvfECzYuGHI2Se3gYjfT1DlBPjt/fVluEYQFIuylUgjsOM2McR/MEE8QEduFI53DfoyHwOEiKUFZ6iJ5EHNR/HZuxJC8Z5AVgDquB5iCgMEvEiYOBkSNQM2NdjSPFL8uTVI4PTFecgMJCRmKqyCUAeslIT8KamSQ12iJBHJUqRKk55jTllyziUbKfYSS7qKlFxKqaWVXmNNVWqupdbaam+hRUhTWm6l1dZa76zZsdx5unND7yOMONKQa+RRRh1tdCV9NKlo1qJVm/YZZpzwx8yzzDrb7MsvUmmlJSuvsupqq29Sbcdrpy0777Lrbru/o/bA+u39B6j5B7VwkLIbyztqnC3lzYQ3OhHDDMDClTyIF4OAhA6Gmas+pWDIGWauQX9RAk6KYTa9IQaCafkg279hd4UbUUPuX+F2lfQJt/BPkbsMuj9E7jtuP6E2rQ3pQeyuQguqi1Qf11ftoXZrdt+O168u/OnxLw3h+PK9bCVQE8/WWLPsbvuEQGFKp6XH1S/oMI+QSs9z0cucEjp1SmWv7lZoE/4unTSbdEUiQBpMPpwGLCrrubgC9i+NU+zCqr6UYd+qWzC/TwMT8pjoe3w2MR4TaS8NZuE6JqTMVxNlZ5+7ndnJ9bHO466YO4iCPfKyfe/a4h6OzLLzV3dp4vFykTWreNyIXYu5kY8b7jjyzQ0/MxuqPpoPeHCdbR0n3Bre/pdcOwYg52xO/OjCWf8862I8HlXKCCN5xF8Z6Y+RgpEo7RiRT0ZsIxcodj0BDeciIW3vIe3PXg4cFbflRO62xL23JbNjwXaV5JDbn/obf5YngHlYYHzZNzj6gKP0NUuuxyHr5hbc9gT3xaE3d37c1saX6zhzu3JAzh8gvzkzzJk1M6tXt3str1s6O6Lor3tLZab42Zv2eJOPNzCEeUMpeANb37FGM8wOfvOiXMTt16jkb45Y0r668rEhXLH94Mdl519wenHk4FRk3DjdzrwHWNpaFY1Tp9data4LroPgUCRoVzieYpkRKpZdOwTk61nzYBotRppxVw85sGKYC8qsafd0rd7y7FUGA0XrcyVr5lb5EEUbyxDPyCuXq8/Su4ymWugUDi7xa8UdO2FY45qzLAtJh1xKgXoGOdNbjCgpQ4aNbyVEcZINsfVSOyRa2ipNAn6hMdqcs16h97qFOkzw/NBaFpq870haECkEHvvIodE22EwaSEKyLtPLyOvWvNUfLsx4ZdODOSpKA0Ca+DEnvB77mCNBInWrwJNlOyWtc40r1umKpkSN48zKOlr27dojqmKE5C58wguyaBk7NyedbltDkOSrFke/2xInQZ04gyaCdfM8s9Dsnhh5xUPt9OJFP9yrEHtCYi1jCVHbdLhuPXXXLEEGkRo6SqGbL9rspNUD7rWNntsuOosI/V1SHfihMXiiEFUg8jlo4nRV347w3aVDGIVOPuiszS+F3C+SQXIledam36fZ6bILbpm02Lng/UV9xJWJ1UBt7LxOAkXLJGKTJA7bKjrbKf6QZblrIi9AMdWOoCvJN7biSp8J7Td1MDM5FSmEBWFQCv2Hs6TXWo5aY6wy2zkBmOAYqChFxEkEcG9Cm0qZolDHelIHzdyPBEBxFIvlYuUWlb7WlKymyxXL/oF+oXhi0KHmS0mTrTZLqRakxVERLWqNh38bsYAWYqfhdNoWHMEdW2knqYTMHESdUAcNPcu2hpXNDozjx9E8gCwzIAQWZEQGjxDHVUlaDJVAD25qDNLMNhVD/6UlEMO8Vrct2By5Mp4OSDMZ59QUdhE/1aWTkIM2vkkMtWs75CZUEjvvaLQZyAVpDdBDWpzbkreJmQBf0WJxNldxlEieG7RyorrAX/ditiotig3cwj+O0snLOXPIyAhN1AGJZABC63J4XshsZxlCv2r2TJnqu7ATsoGbJsRN816mJ6GvVGtiKWfbwyDpl82lIQKxZWAdEtgIE9YmBdIbkYVO02RkV7TkjqmNtt0WVeRfmMiu5qzYW0LQwUQXGOimRkAc/qL8EmiHDamJG2VlRwCb5jh604Kyw9ttmpkcWA08KuWTZ0BDOtQqOZJQIMlE1dre8q5RocyCgrRZLsHFdVSzg9jhiTYj/cL0BLxIkc7MuA4/MfrWQJZV0rVu0/70TcJOSlFUoAybM/i4yfA6qTgV5piq01OINlCHsi+IaqMNKE8RE7UBPtPhataupAvEumzDtQ6UG8kBTcDtlm3Zk9iQBbvIK19UE+7DN0GbQ4QjchnazOYqVI56E8XgG+1ZEhJ1vadaHY2Zeres88xu4yq7MVmTb4z6mXEiRp9zoM5sWXickZ+chYILClI6Ot86GSPC1AjZrQGtialaMGOmjKQ5QZFhjYg+4KkaxhWjGtXscWnZD0qkYZemAcm/b6PAxpzBwheZwj0m0xsFjcYVdBzdOdJb6D9SQmSqh5utv8SZGyGWkYyZ6SUN9iRPLLMxEMEGHGWTLzTfUElM0j+Txji7YyAR9vDRZA7bXqzVVsLLU7qFFIXiLvpOIBEZvLqlltN41Axshagkk7tJ407MsWi/MQ2UK7PTlEq/xlvKUtVo5PwWNjyDVjaloWk2L0e2VHIen0q1rufLoFBVaRjNUXZ+r2B0Ye0mypjhAoGUtS2TLnEiSMrJFlhChs60iHZsWXdLA4KApFEClJQxr9ZD9sy0YwzyqG/LhkHTL4xLSemP09gnWwv4aUKZk8hYs8ubcuSgJDMMOdiZVquBPSY4UJP0y7EQNQigqL4magCCTt40+1gp3iJqmFRHLy+biC8TUQxpKIMtR8qd+Jh+o4cvanNt8pf6Ojqu25DguUhV0oojnX1vJBU6G+8I8a3ZwHqkvceiq6fwsaxJPVtYTUc+q5b3Ve81r3vR8ReLGnfOW8O+rfusaj9xQgbKCHFT7D1i3beN+7b4dhspiRID2YE2oUi3rJHJO8q8tYKEQYUyrrMNubfRn23AM6bWutNhv9mFdM9p6dHV6BGGLluMeQB+S+0OdjXZmZ59DdsX+0cO277CMyq0yCP+FtbryEHiku8ZwHnTwDb4BdJQwodT7y4ZojrugeG49Tj15pLB08o9MVzHr186dfL9nlIet+z3tVfH7HfkfI+i+/ZtWbReHftdtOa3aF0f4eLB9nejFb9F6/oIl0Xr1akyxq6mwntdunIZeQqdqk1xrS5U8AgIyFmXy6nPC15CEuYeeZRioEN1D3UK6gXCUPp0g+eQC/L7nxquf/9jxj8zRKRmu/4PsIJ+z+znFnQAAAGFaUNDUElDQyBwcm9maWxlAAB4nH2RPUjDQBiG36aKfxUHM4g4ZKhOFkRFHKWKRbBQ2gqtOphc+gdNGpIUF0fBteDgz2LVwcVZVwdXQRD8AXF1cVJ0kRK/SwotYjy4u4f3vvfl7jtAqJeZZnVMAJpum8lYVMpkV6WuV4TQhx5aRZlZRjy1mIbv+LpHgO93EZ7lX/fn6FdzFgMCEvEcM0ybeIN4ZtM2OO8Ti6woq8TnxOMmXZD4keuKx2+cCy4LPFM008l5YpFYKrSx0sasaGrE08RhVdMpX8h4rHLe4qyVq6x5T/7CUE5fSXGd5ghiWEIcCUhQUEUJZdiI0K6TYiFJ51Ef/7DrT5BLIVcJjBwLqECD7PrB/+B3b6381KSXFIoCnS+O8zEKdO0CjZrjfB87TuMECD4DV3rLX6kDs5+k11pa+AgY2AYurluasgdc7gBDT4Zsyq4UpCnk88D7GX1TFhi8BXrXvL41z3H6AKSpV8s3wMEhMFag7HWfd3e39+3fmmb/fgAx43KNaCM7qQAADXZpVFh0WE1MOmNvbS5hZG9iZS54bXAAAAAAADw/eHBhY2tldCBiZWdpbj0i77u/IiBpZD0iVzVNME1wQ2VoaUh6cmVTek5UY3prYzlkIj8+Cjx4OnhtcG1ldGEgeG1sbnM6eD0iYWRvYmU6bnM6bWV0YS8iIHg6eG1wdGs9IlhNUCBDb3JlIDQuNC4wLUV4aXYyIj4KIDxyZGY6UkRGIHhtbG5zOnJkZj0iaHR0cDovL3d3dy53My5vcmcvMTk5OS8wMi8yMi1yZGYtc3ludGF4LW5zIyI+CiAgPHJkZjpEZXNjcmlwdGlvbiByZGY6YWJvdXQ9IiIKICAgIHhtbG5zOnhtcE1NPSJodHRwOi8vbnMuYWRvYmUuY29tL3hhcC8xLjAvbW0vIgogICAgeG1sbnM6c3RFdnQ9Imh0dHA6Ly9ucy5hZG9iZS5jb20veGFwLzEuMC9zVHlwZS9SZXNvdXJjZUV2ZW50IyIKICAgIHhtbG5zOkdJTVA9Imh0dHA6Ly93d3cuZ2ltcC5vcmcveG1wLyIKICAgIHhtbG5zOmRjPSJodHRwOi8vcHVybC5vcmcvZGMvZWxlbWVudHMvMS4xLyIKICAgIHhtbG5zOnRpZmY9Imh0dHA6Ly9ucy5hZG9iZS5jb20vdGlmZi8xLjAvIgogICAgeG1sbnM6eG1wPSJodHRwOi8vbnMuYWRvYmUuY29tL3hhcC8xLjAvIgogICB4bXBNTTpEb2N1bWVudElEPSJnaW1wOmRvY2lkOmdpbXA6YzVmNjBmNzQtZjIzMS00NzZkLThjYTMtNmQwNTVmMTVkMDY3IgogICB4bXBNTTpJbnN0YW5jZUlEPSJ4bXAuaWlkOjMxYjU0YzM4LTIwZmItNDJjYi1iYTczLTIzNjU3MzI1OTI3MyIKICAgeG1wTU06T3JpZ2luYWxEb2N1bWVudElEPSJ4bXAuZGlkOjk3OWM4MTZhLWJiMDgtNDNiMy05MWQxLTZiMTg0YzA0MWJhNSIKICAgR0lNUDpBUEk9IjIuMCIKICAgR0lNUDpQbGF0Zm9ybT0iV2luZG93cyIKICAgR0lNUDpUaW1lU3RhbXA9IjE3MDIyODY4NTg0MDczOTQiCiAgIEdJTVA6VmVyc2lvbj0iMi4xMC4zMiIKICAgZGM6Rm9ybWF0PSJpbWFnZS9wbmciCiAgIHRpZmY6T3JpZW50YXRpb249IjEiCiAgIHhtcDpDcmVhdG9yVG9vbD0iR0lNUCAyLjEwIgogICB4bXA6TWV0YWRhdGFEYXRlPSIyMDIzOjEyOjExVDEwOjI3OjM2KzAxOjAwIgogICB4bXA6TW9kaWZ5RGF0ZT0iMjAyMzoxMjoxMVQxMDoyNzozNiswMTowMCI+CiAgIDx4bXBNTTpIaXN0b3J5PgogICAgPHJkZjpTZXE+CiAgICAgPHJkZjpsaQogICAgICBzdEV2dDphY3Rpb249InNhdmVkIgogICAgICBzdEV2dDpjaGFuZ2VkPSIvIgogICAgICBzdEV2dDppbnN0YW5jZUlEPSJ4bXAuaWlkOmVmODk3OWIyLTliMTgtNDdjYy1hNjAxLWE1OTQ4YmJhYjc1ZSIKICAgICAgc3RFdnQ6c29mdHdhcmVBZ2VudD0iR2ltcCAyLjEwIChXaW5kb3dzKSIKICAgICAgc3RFdnQ6d2hlbj0iMjAyMy0xMi0xMVQxMDoyNzozOCIvPgogICAgPC9yZGY6U2VxPgogICA8L3htcE1NOkhpc3Rvcnk+CiAgPC9yZGY6RGVzY3JpcHRpb24+CiA8L3JkZjpSREY+CjwveDp4bXBtZXRhPgogICAgICAgICAgICAgICAgICAgICAgICAgICAgICAgICAgICAgICAgICAgICAgICAgICAgICAgICAgICAgICAgICAgICAgICAgICAgICAgICAgICAgICAgICAgICAgICAgICAgCiAgICAgICAgICAgICAgICAgICAgICAgICAgICAgICAgICAgICAgICAgICAgICAgICAgICAgICAgICAgICAgICAgICAgICAgICAgICAgICAgICAgICAgICAgICAgICAgICAgICAKICAgICAgICAgICAgICAgICAgICAgICAgICAgICAgICAgICAgICAgICAgICAgICAgICAgICAgICAgICAgICAgICAgICAgICAgICAgICAgICAgICAgICAgICAgICAgICAgICAgIAogICAgICAgICAgICAgICAgICAgICAgICAgICAgICAgICAgICAgICAgICAgICAgICAgICAgICAgICAgICAgICAgICAgICAgICAgICAgICAgICAgICAgICAgICAgICAgICAgICAgCiAgICAgICAgICAgICAgICAgICAgICAgICAgICAgICAgICAgICAgICAgICAgICAgICAgICAgICAgICAgICAgICAgICAgICAgICAgICAgICAgICAgICAgICAgICAgICAgICAgICAKICAgICAgICAgICAgICAgICAgICAgICAgICAgICAgICAgICAgICAgICAgICAgICAgICAgICAgICAgICAgICAgICAgICAgICAgICAgICAgICAgICAgICAgICAgICAgICAgICAgIAogICAgICAgICAgICAgICAgICAgICAgICAgICAgICAgICAgICAgICAgICAgICAgICAgICAgICAgICAgICAgICAgICAgICAgICAgICAgICAgICAgICAgICAgICAgICAgICAgICAgCiAgICAgICAgICAgICAgICAgICAgICAgICAgICAgICAgICAgICAgICAgICAgICAgICAgICAgICAgICAgICAgICAgICAgICAgICAgICAgICAgICAgICAgICAgICAgICAgICAgICAKICAgICAgICAgICAgICAgICAgICAgICAgICAgICAgICAgICAgICAgICAgICAgICAgICAgICAgICAgICAgICAgICAgICAgICAgICAgICAgICAgICAgICAgICAgICAgICAgICAgIAogICAgICAgICAgICAgICAgICAgICAgICAgICAgICAgICAgICAgICAgICAgICAgICAgICAgICAgICAgICAgICAgICAgICAgICAgICAgICAgICAgICAgICAgICAgICAgICAgICAgCiAgICAgICAgICAgICAgICAgICAgICAgICAgICAgICAgICAgICAgICAgICAgICAgICAgICAgICAgICAgICAgICAgICAgICAgICAgICAgICAgICAgICAgICAgICAgICAgICAgICAKICAgICAgICAgICAgICAgICAgICAgICAgICAgICAgICAgICAgICAgICAgICAgICAgICAgICAgICAgICAgICAgICAgICAgICAgICAgICAgICAgICAgICAgICAgICAgICAgICAgIAogICAgICAgICAgICAgICAgICAgICAgICAgICAgICAgICAgICAgICAgICAgICAgICAgICAgICAgICAgICAgICAgICAgICAgICAgICAgICAgICAgICAgICAgICAgICAgICAgICAgCiAgICAgICAgICAgICAgICAgICAgICAgICAgICAgICAgICAgICAgICAgICAgICAgICAgICAgICAgICAgICAgICAgICAgICAgICAgICAgICAgICAgICAgICAgICAgICAgICAgICAKICAgICAgICAgICAgICAgICAgICAgICAgICAgICAgICAgICAgICAgICAgICAgICAgICAgICAgICAgICAgICAgICAgICAgICAgICAgICAgICAgICAgICAgICAgICAgICAgICAgIAogICAgICAgICAgICAgICAgICAgICAgICAgICAgICAgICAgICAgICAgICAgICAgICAgICAgICAgICAgICAgICAgICAgICAgICAgICAgICAgICAgICAgICAgICAgICAgICAgICAgCiAgICAgICAgICAgICAgICAgICAgICAgICAgICAgICAgICAgICAgICAgICAgICAgICAgICAgICAgICAgICAgICAgICAgICAgICAgICAgICAgICAgICAgICAgICAgICAgICAgICAKICAgICAgICAgICAgICAgICAgICAgICAgICAgICAgICAgICAgICAgICAgICAgICAgICAgICAgICAgICAgICAgICAgICAgICAgICAgICAgICAgICAgICAgICAgICAgICAgICAgIAogICAgICAgICAgICAgICAgICAgICAgICAgICAgICAgICAgICAgICAgICAgICAgICAgICAgICAgICAgICAgICAgICAgICAgICAgICAgICAgICAgICAgICAgICAgICAgICAgICAgCiAgICAgICAgICAgICAgICAgICAgICAgICAgICAgICAgICAgICAgICAgICAgICAgICAgICAgICAgICAgICAgICAgICAgICAgICAgICAgICAgICAgICAgICAgICAgICAgICAgICAKICAgICAgICAgICAgICAgICAgICAgICAgICAgCjw/eHBhY2tldCBlbmQ9InciPz5NFEB+AAAABmJLR0QAdAB0AHTxgYjZAAAACXBIWXMAAA7DAAAOwwHHb6hkAAAAB3RJTUUH5wwLCRsmoY6ecgAAIABJREFUeNrt3Xt8FIW5//FnN5vdzWWzG5JAgJAGUVCKFJVzwIpHff1+m4RbuIRW6g2tPVBRKQoHL1XBgkUgyKXSA1SUn1hA+qPlWgELWsULlhIvgIonGCFgJNkke0n2vnv+aOnpUdHdzWVnZz7vv3ezM8882We+M7MzIgAAAAAAAAAAAAAAAAAAAAAAAAAAAAAAAAAAAAAAAAAAAAAAAAAAAAAAAAAAAAAAAAAAAAAAAAAAAAAAAAAAAAAAAAAAAAAAAAAAAAAAAAAAAAAAAAAAAAAAAAAAAAAAAAAAAAAAAAAAAAAAAAAAAAAAAAAAAAAAAAAAAAAAAAAAAAAAAAAAAAAAAAAAAAAAAAAAAAAAAAAAAAAAAAAAAAAAAAAAAAAAAAAAAAAAAAAAAAAAAAAAAAAAAAAAAAAAAAAAAAAAAAAAAAAAAAAAAAAAAAAAAAAAAAAAAAAAAAAAAAAAAAAAAAAAAAAAAAAAAAAAAAAAAAAAAAAAAAAAAAAAAAAAAAAAAAAAAAAAAAAAAAAAAAAAAAAAAAAAAAAAAAAAAAAAAAAAAAAAAAAAAAAAAAAAAAAAAAAAAAAAAAAAAAAAAAAAAAAAAAAAAAAAAAAAAAAAAAAAAAAAAAAAAAAAAAAAAAAAAAAAAAAAAAAAAAAAAAAAAAAAAAAAAAAAAIDW6bSwkvv27esWjUatbO7YhMPhPtFoVEclvl00Gs2KRCLdqETMvZUfjUaNVCKm3jKEw+F8KhFzb1kikYiZSsQmEAjkUYWYeysjHA7TW7H3Vg77EDH3liEQCGQodfkeeOCBPmyl5ISoqJJWdMiQIZKXx8yIVc+ePUWv11OIGJhMJsnOzqYQMbJYLGIwGChEDPR6Pb0V5/9ieno6hYhRVlYWRYhRenq6GI0c/4mV2WwWnY4cFYu0tDRF9taIESM6OyekvE7dk2loaKDCAAAAAFSFUw0AAAAAQIgCAAAAAEIUAAAAABCiAAAAAIAQBQAAAACEKAAAAAAAIQoAAAAACFEAAAAAQIgCAAAAAEIUAAAAABCiAAAAAIAQBQAAAAAgRAEAAAAAIQoAAAAACFEAAAAAQIgCAAAAAEIUAAAAABCiAAAAAACEKAAAAAAgRAEAAAAAIQoAAAAACFEAAAAAQIgCAAAAAEIUAAAAADVzuVwUgRAFAAAAIFavvPKK3H777UEqkcQQFQxSfwAAACAVtLW1yYoVK8Rut79INZIUov7t3/4tWl1dTYUBAACAFHDw4EHp379/pKCg4F6qkaQQNXny5Or169dLJBKhygAAAICCBQIBWbNmjYwdO/aPpaWlLVQkSSGqb9++Pz127JgcP36cKgMAAAAKdujQIUlPT4/27NlzOtVIYogaOXLkX37yk5/UbNy4UaLRKJUGAAAAFCgUCskzzzwjkydPPlhWVnaaiiQxRImI9O/ff8b27dvl5MmTVBoAAABQoOrqanE4HNKnT5+pVCM2us7+gAULFtQ7nc4ec+bModoAAACAgkQiEZk5c6Zce+21706fPv0KKhKbTn9O1OWXX/7wkiVL5OzZs1QbAAAAUJBjx47JX//6VykpKbmbasRO1xUf8tBDDzmtVmvOnXfeScUBAAAAhXjsscekf//+n9x33339qUbs9F3xIVddddXy+fPni8PhoOIAAACAAnzyySfyn//5n3LJJZf8B9VQYIiyWq2P33777b4DBw5QcQAAAEABtm3bJgsXLjw7ZsyY7VRDgSHKbrdHRowY8XxVVZW43W6qDgAAACTRqVOnZPHixTJw4MC5VEOhIUpEJD8//75rrrkm9MYbb1B1AAAAIIl27twpc+fObRo3btwzVEPBIcput7fZ7fZdK1euFJ/PR+UBAACAJPjiiy9k3rx58r3vfe+XVEPhIUpEpLCwcFqPHj0if/nLX6g8AAAAkAR79uyRWbNmtU6cOHEp1UiBEFVaWnpu3Lhxb6xevVqCwSDVBwAAALpQU1OTLFy4UIYPH/4rqpEiIUpEpE+fPne63W55//33qT4AAADQhfbv3y8/+MEP/Dab7VGqkUIhqry8/JObb775/Q0bNkgkEmELAAAAAF3A4/HI8uXL5brrrvt/drs9REUSZ0jGh1500UV3L1269PWPP/5YLrvsMrZCJxk9enSH/a3du3dTUADQIL/fL21tbRKNRsVgMIjZbBaz2Swmk0mMRqMYDAbR6XQSjUYlFApJIBAQv98vPp9PfD6fhEIh0el0kpmZKSaTiYICSfTnP/9Zhg4dGs7Pz59FNdpHl6wPrqqq+rS2trZk7lxuTa/E0ESoAgDthiaPxyNGo1FsNpvk5uZ22N9ubm6WlpYWCQQCkp2dTagicBO4u5DP55OJEyfKjBkzfnfrrbf+kIq0jyFZHzxgwID/mD179u+mTJkiJSUlbIkUCE4X+lwCFUMO9Al9oo7gZLFYpHfv3p32Obm5uf8rlJ09e1bcbjeBSiWBO9be0el0kp6eLunp6ZKVlUXg7iJvvvmmFBQURHv06HEP1Wg/XTI//PHHH28Ih8P59957L1siRcLTNyFMpcaQ46gy6BOc53Q6Ra/XS1FRkaSnpydtOYLBoNTV1UkkEhGr1cqGSZHA3atXry77XAJ3+//Hbr75Zrn11ltf/vGPf1xKRdrPkMwPHzx48BMTJkxYNmnSJOnZsydbI0XD05eXjTClrCHHUWXQJ/iypqYmycjIkH79+iliedLT06Vv374iInL69Gnxer3SrVs3NpRCA3dnfl9cyPnARuBOzOHDhyUcDkd79+7971SjY+iSvQBz5sxxde/e3TJlyhS2RoqGpwshTCV3yHFUGfQJvqylpUVMJpP06dNH8ct6+vRp8fv9YrPZ2HAKCNxK7BkCd2zC4bBMnz5dysrKDk2bNm04FVFJiPrd73735O233/7AkSNH+CdQSXgiTDHkGHL0CX2iLD6fT/x+v2LOPMWjpqZGTCaTmM1mNiSBm8CdgOrqapk1a5YsXrz4ypEjR1ZTEZWEqJdffln/+9//vu2KK64wTZgwgS2isgBFkGLIMeToE/ok+eE5Ly9P8vLyUnYdHA6HOBwOQjaBm8Adp2g0KnPmzJGrrrrq+L333vtdKqKiECUisnHjxvWPPPLIlP3790t2djbhSUXhiTDFkGPI0Sf0SXIEAgHxer0puf2/qS8yMjLEaDSygQncBO4YfPjhh3LTTTfJmjVr/u/o0aP3U5GOo1fCQhQUFEwfPnx4+K233iJAqThAaWH9umrIKekH4fHq16+fZGRkSFNTExuTPqFPOonT6ZRIJKKqAHW+LyKRiDidTjZyBwdup9Mp/fv3T+kAJSKSl5cn/fv3F6fTKYFAQPPbduvWrTJz5sxaAlTH0yllQdavX79r7dq1o7ds2aLZuzV1dsCYMGGCeL3eWEKtbNiwoVOXhTNSiQ05jiqDPkEsAbqzziaEQiHx+/0SCAQkHA5LOByWSCQikUhE9Hq96PV6SUtLk7S0NDEajWIymcRg6PgbAXO2oWMDt8lkkqKiItWtW11dnfj9fs3euObkyZMybNgw2bFjx00VFRWb6HaVhqi9e/f2rKqqOnPPPffovv/97xOgOkBFRUWHHIUxGo2yY8cOghRDjiFHn9AnCudwOKR3794ddml8KBSStrY28fv9EgwGJRwOx/030tLSJD09XUwmk2RmZnZYqPJ4PHLmzJmUP3NC4CZwd5annnpKsrKyvnjkkUcK6XYVhygRkTVr1ry1a9eu4WvXru2UfyQtBKjy8vJOX949e/YQpBhyDDn6hD5RYIAqLi6WjIyMdv2dcDgsHo9HfD5fp1wOZTQaxWw2S3Z2tqSlpbXrb3m9Xjl16hRBisBN4P6SM2fOyJAhQ2Tbtm13jR8/fjUdr/IQ9dJLLw169NFHP1i4cKEMGTKEABWjyspKaW1t7fJl79Wrlzz77LMEKYYcQ44+oU9UEKDa2tqktbVV/H6/RKPRzt8B0enEZDJJVlaWZGZmEqQI3ATuDrR27VppbW11/vKXv+RWp1oIUSIiK1euPHb48OGBVVVVotPpVF38jghQXXHm6dt0xJkpghRDjp0h+oQ+SbwHioqKJCsrK+HQ7HQ6pa2tLWnrkJmZKVarNeGw3draKnV1dfQEgZvvDhFpbGyUoUOHyvPPP/9oZWXlArpeIyFq9+7d102bNu3VzZs3y4ABAwhQF9BRv3fqyB2k9v5uiiDFkGMHmT6hT+LT3Nws+fn5kpubm9D7XS6XtLa2SigUSvq6GAwGycrKkpycnIRr0djYmHAtCNwEbrX47W9/KydPnvSOHTs22263R+h8jYQoEZFFixadPnPmTNGjjz5KgPoaSjj7dCHtPStFkGLIaWXI0Sf0SXu1tbWJ0WiUwsL4fzMeDoelpaUlqdv/m/rCZrMldMayvr5eAoFAuwI6gZvAncpcLpeMGDFCli9fvvzGG2+8j87vPHolLtTAgQNnr1y5Uk6dOsUW+idTpkxRdIA6H/DuuOMONlY7hlz37t0T3jF2uVzS0NCQ9B2jtrY2aWhoEJfLldD7s7KypHv37tLc3ExT0Cf0yQVEIpGEApTP55PGxkZFBqjzfdHY2Cg+ny/u9xYWFkokwoH3r6upxWJJKDSEw2FxOBzidDoVEaBE/ucgkMPhSOg3m7m5uWKxWBT7P9AeBw4ckLKysmC3bt0eoPM7l2J/dPTYY485DAZDt7vuuktVBU/0LNTkyZOlpaUlZdbTZrPJ5s2bE3qvVs9GcVT5qziqTJ/QJ1/P4XAkdMm72+0Wj8ejmJ3hb2IwGCQ7O1ssFkvc7/344485k/1PPB6PlJSUJBS4lf7QWqPRKFarVcxmc9zvra2t7bAb8ihlPowZM0YefPDBDTfffPNtdH7n0it1wYYMGbL4sccek3Pnzmk+QJWXl6dUgBIRaWlpSfisWWc/dFipOKr8VRxVpk/ok69yuVzSp0+fuN/ndDrF5XKlRIAS+dvZBpfLJU6nM+739unTJ+EznGoM3IkEKLfbLc3NzYoOUCJ/e8B4c3OzuN3uuN9bUlIiDodDNdv64MGD0r9//0hBQcEMOl/DIWrixImL7rvvvraXX35Z0xtI6ZfvqX35GXIMOfqEPlEag8EQ91k3p9MpHo8n5cJmJBIRj8cTd5DqyNvqE7gJ3KnA7/fLqlWrpKKiYndpaWmLQLshSkRk+PDhaxctWpRyZ2G+TiJnVyZPnqyKJktkPbR0Noohp50hR5/QJx0RpIuLi+MO0akYoL4cpOIN18XFxZo/AEPg1k7gPnTokFit1mhhYeE04g0hSrp16/bA6NGjg6+99prmAlRlZaUqwqPI3y7te+SRRwhSDDmOKtMn9Ek76xLv73za2trE7Xan/OWOkUhE3G533Jej5uXlafaSYAK3dgJ3KBSSdevWSWVl5etlZWWfE28IUWK32wPXX3/9/1+6dKkq76DyTVpbW1W1PocPH+a/jSGn6SFHn9An7dXS0iL5+fkxvz4YDIrL5Uro7mVKFA6HxeVySTAYjPk9+fn5qjkgSeAmcF9IdXX1+cdecBaKEPU/unfv/tOBAwdG3n777ZQscCJnU9T6O6JE1kvNZ6MYchxVpk/ok1hFo1EpKCiIO3TFEzhSQTAYjDsUFRQUdMmDpAncBO5kfU8+//zzMmXKlOry8vKPiDaEqH8oLS11jRo1av+qVasU/6PoZAUN1o8hx5CjT+gTdfdJU1NTXM/4aWlpSehOh6nA5/PFtX1zc3OlqalJM98ZBG5tBe6jR4/KkSNHpKSkZDp7VoSor+jdu/ed6enp0erqatVuiH79+smkSZM00XRaWU+GHEOOPqFPOorVao0rZKjtkvAva21tjSskxlM/AjeBO5VmxJYtW2T69OknRo0a9baAEPVlZWVlpydNmvTX9evXp9QlGvFcilZTUyMej0cTTRfveqrxkj6GnHaGHH1Cn7SX0+mM69lgLpdL9Ze9RiKRuO7EWFhYmNAdHwncBG4l++STT+QPf/iDXHzxxbOJNISoCyopKfnp8ePH5ejRo6rcEBUVFZpqPK2tL0NOu0OOPqFPupLL5RK/36+JdfX7/TxQl8Ct6cC9detWuf/+++vGjBmzk+4nRF3QyJEj/zp16tQTmzZtUt2lPH369NHE773+mdbWlyGn3SFHn9An7dW9e/eYX6u1O9nGs77x1JHATeBWus8++0yeeuopGThw4MN0MyHqW1188cU/27Fjh9TU1Ch+WeO5BG3IkCGabL5bb721U+rJkGPI0Sf0iVq0tLSIxWKJOVCo7fdw3yYYDMYcpCwWi+pvTEPg1k7g3rlzp8ybN89RUVGxgSlIiPpWY8aM2TNz5szPt27dqrohoEUNDQ2aXG+GnHaGHH1Cn7RXPFdeaK0PEllvNd+UhsCtncBdX18vjz/+uHzve997gihDiIrZd7/73Z9XVVXJmTNn2HpgyDHk6BP6RNV9kpOTE/NrtXqZdDzrHU89CdwEbqXas2ePzJ49u3XChAnL2LMiRMVs3Lhxzz388MPOl156SbHLGM+lZzfeeKOmG7CysrJT6sqQY8jRJ/RJqvdJOByO+UxaW1ubap4NlkidYu2H7t27q7ZOBG5tBO6mpiZ58sknZdiwYSuJMYSouF155ZXLHnroIVVcDqaVW65eiNrvJsaQ0+aQo0/ok47gdrtFp9PF9Fqv16vpWRLr+ut0OnG73aoMkgRubQTu/fv3yw9+8AO/zWZ7jBhDiIrbpEmTHp85c6b3wIEDbEEw5Bhy9Al9oso+iWeZtfrb2kTWX43/MwRubQRuj8cjVVVVct1116232+0h9qwIUQkZPnz4+sWLF6f0XZouu+wyOlBDGHLaGHL0CX3SUQwGQ0yvi0ajhKhgMObLNmOtK4GbwK20wP3qq6/K8OHDw/n5+fezV0WISlheXt79119/fejgwYMpW/x+/frRgSLyox/9SBPryZDTxpCjT+iTjmIymWJ6XTwPIFazWOsQa10J3ARuJQVur9crK1askJEjR2612+1t/McTohJmt9t9drt928qVK1P2aGwoxJlYEZHm5mZNrCdDTv1Djj6hTzpSRkZGTK/T8sPLE6lDrHUlcBO4lRS433rrLSkpKYn06NHjLrYgIardevTocVfv3r0j77zzDlsSDDmGHH1Cn6iqT8xmc8xhErHXIda6ErgJ3EoJ3IFAQFavXi3jxo37U2lpaRNbkBDVbqWlpY0VFRWvrV69miEChhxDjj6hT1TVJ0ajMabXafXmIonWIda6ErgJ3EoJ3IcPH5ZoNBrt1avXVLYeIarDFBUV/cTn80XfffddtiYYcgw5+oQ+UU2fxHoJYiQSoRHiqIMabyxB4FZv4A6Hw7J+/Xr50Y9+dKisrOwzth4hqsOUl5fX3HTTTe8999xzDBIw5Bhy9Al9opo+ifUujcy++OoQa10J3PSKEgL3e++9J7W1tVJcXMxvoQhRHa9v375Tjx07Jh9++CFbFAw5hhx9Qp+ook9ivWmGXq+nEeKoQ6x1JXDzvZHswB2NRmXjxo3y4x//+OjIkSO55IoQ1fFGjhz5lzvvvPPkxo0bVfnlCIYcQ065Q44+oU86S6x3cCVExVcHNd4Zl8CtzsD94Ycfyv79++Wiiy6awVYjRHWaAQMGzNi2bZt8+umnbFUw5Bhy9Al9kvJ9EutNM9LS0miEOOqgxpuyELjVGbi3bNkiM2fOrB09evQrbDVCVKcZM2bM7nvvvffcjh07UmJ5c3Jy6D6NYcipc8jRJ/RJZ4n19u3p6ek0Qhx1UOPjAQjc6gvcNTU1smrVKhkwYMAsthghqtNdfvnlv3jiiSfk888/V/yyejweyc3NpQNFJDMzUxPryZBT35CjT+iTzhTrg+TVeMvuRMRah1jrSuAmcCczcG/fvl0WLFjwxdixY3/PFiNEdbrx48eveuCBB9x79+5V/LJGIhHZtGkTHSgiv/+9Nr4fGHLqG3L0CX3Smfx+f0yvU+PDYxMRax1irSuBm8CdrMBdV1cnCxculEGDBs1jaxGiuszQoUOfnjdvnjQ18UBnMOQYcvQJfZK6fRLrJYg6nU7zoTo9PT3mm4eo8cYSBG51Be7du3fLz3/+85bx48evZmsRorqMzWZ7ZMqUKf5XXuE3eGDIMeToE/okdfsknks2CVHpnVJXAjeBu6s1NjbKwoUL5corr1zCNzwhqkvZ7fbItdde+8LixYvF7XYrfnm1fjR54MCBmllXhpx6hhx9Qp90BYvFEvNdBTMyMjTdC7GufzQaFYvForr1J3CrJ3Dv3btX7rzzTm9OTs6TxBRCVJfLz8+fcfXVV4fefPPNpHz+7t27Y35tqtxNsLM89dRTnVJXhhxDjj6hT1K9T9LS0uTcuXMxvTYzM1OzNxtJS0uL+QZF586dU2WdCNzqCNxOp1MWLVokI0aMWG2323kYICGq69nt9rbS0tI/rlixQpW3MgVDjiGXvCFHn9AnXcnlcsX8Wq1e2RDPesdTTwI3gbur63TgwAEpLy8P5ubmPsheEyEqaXr27PnvBQUF0cOHDyt+WUtKSjTZfFq5tTlDTl1Djj6hT7pSrJcravE7NZH1jqeeBG4Cd1dqbW2VqqoqsdvtG+12e0BAiEqW0tLSc+PHj39z3bp1SbkWPp5Lz1av1ubNV+K5tXmqX8rHkFPHkKNP6JOuZrPZYv59b2ZmpuYu8UxPT485RLndbrHZbKqtBYE7tQP366+/LldccUW4oKDgHuIJISrpiouLp9bX18v777+vqh0Cre0AMeQYckoZcvQJfZIMsZ6Z1GI/xLO+8dSRwE3g7srA7ff7ZdWqVTJq1KhddrvdQzwhRCVdeXn58SlTphzdsGGDRCLK/n2e1m4wodUbajDkUnfI0Sf0SSrIyckRk8mkiXU1mUySk5PDnhyBO+UD96FDhyQ3NzdaWFg4jS4mRClGv3797n7jjTfkxIkTXf7Z8V6CVlxcrImmu+yyyzq1jgw5hhx9Qp+oqU+sVqvU19fHFaT0enWPd71eH1eAqq+vF6vVyl4fgVtxgsGg/OY3v5HKysrXysrKvqAzCVGKMWrUqNemT59+asuWLYpf1rVr12qi6ZYtW8Z/HkMupYYcfUKfJJvT6Yz5tWazWbKyslRdj6ysrLgeOB1P/QjcBO6uDNzV1dXidDqlqKhoKtOMEKU4l1566exf/epX8tlnnyl+Wffs2aPqbaH29WPIqXPI0Sf0SbJ169ZNmpubY369zWaLK2SkErPZHNclms3NzdKtWzcCN4FbcYE7EonIhg0b5NZbbz1SXl5+QkCIUpqxY8f+bt68eY5du3Z1+WcncinaoUOHCFDtqB9DjiFHn9AnausTnU4nDQ0Ncb3HZrOp7vdy6enpcf/GraGhQdW3Nidwp27gPnr0qBw5ckRKSkruJpIQohRr8ODBC+fNmxfXkd1kKS4ultzcXFXV/zvf+Q7/bQy5lBxy9Al9ohQ2m00aGxvjChw5OTmqeZZYWlqa5OTkxBUMGxsbNXVjEQJ36gTuaDQqGzdulOnTp58YNWrU2+wZEaIUa+LEiUvnzJnj+dOf/tTlnx3v2ZT33ntPNm3apJovfpvNJmvWrOn0ujHkGHL0CX2i5j7R6/XicDjiek9mZqZYLJaUv9RTr9eLxWKJ+yYqDodD9Ze5ErhTM3CfOHFCdu7cKZdccsm9xBFClOINHTp0zYIFC6SlpUXxQUpEZPPmzaqoeyLroeYAxZBLnSFHn9AnSpOXlyenTp2K6z0Wi0Wys7NTNkzo9XrJzs4Wi8US1/tOnToleXl52ty5I3ArPnBv3bpVZs2aVTd69Oh9xBFClOLl5uY+OHHixMCrr76aMsuc6jdi4EYSDLlUHnL0CX2iRKFQSNra2uJ6j9VqTckgdT5AxXuDkLa2NgmFQpqeMQRu5Qbu2tpaWbZsmVx22WUPsTdEiEoJdrs9dP3117+4bNkyaW1t7fLPT/Tsyp49e1LuqKrNZks4QGnhLBRDjqPK9Al9kqicnBw5ffp03O+zWq2Sk5MjBoMhJdbTYDBITk5OQndYPH36NI9MIHArNnDv2LFDHn/88caKiooXiCKEqJRRUFBwz6BBg8JvvfVWUj4/0YCwefPmlHmgZs+ePRO+FFFLAYohp+whR5/QJ0oP1rW1tXG/z2KxSG5urhiNRkWvn9FolNzc3LhDtMjfjvJr9YALgVv5gbu+vl7mz58vgwcPnk+HpjadFlf6ueee++O6detGbt68OSkPqBw9enS73l9eXq7Y2rb38j0thiiRv11+NGDAgLjf53a7xePxpMSOo8FgSOjMgojIxx9/zE4RfUKffE1oNBqNUlhYGPd7w+GwtLS0xB3Mu0JmZqbYbLaEftdXX18vgUAgZQ46dhWPxyMlJSVxv8/n84nT6ZRAIKDowG21WhO6M2ltba1kZ2d36fI+++yz0tjY6FmyZImFzkxtei2udK9evf49IyMjeuTIkaR8fnuDwp49exR3FNFoNBKg2oGjyt885AhQ9Al98vVhw+12x3Ub/PPS0tIkLy9PrFarYs42GAwGsVqtkpeXl1CAam5uFrfbTYD6up09vT6hR7yYzWbJz89XbE0zMzMlPz8/oQBVX1/f5Wfpm5qaZPHixTJs2LDldGXq02l1xdesWfP2rl27hv3mN79J2l2s2ntGSkQZZ6U64uYRWg5Q53FU+euHHEeV6RP65Js5HA4pKipK+GHLoVBInE5nUvsiMzOzXYGutbVV6urqOODyLSEzPz8/4edQulwuaW1tVcQZbYPBIFlZWQlfhtfc3CyNjY1d/kzOLVu2yAcffOCvrKzMttvtIboyxQ9OaHXFi4uLf1JXVydHjx5N2jJ0RHD46KOPkrbjkJWVRYDq4J0Ijir/7yHHUWX6hD75dnl5eVJXVyderzfhbZCXlyd5eXliNpu77PlaOp1OzGbzPz470Z70er0EqBjk5ubKuXPnEr6xVk5OjhQUFCT9fy0zM1NCW8slAAALeklEQVQKCgoSDlCtra1y7ty5Lg9QLpdLFi1aJNdff/1zBCh10Gl55VesWPHhkSNHLl2yZElSH8rYEWekzuuKM1MdedtyAtRXcVSZo8r0CX2SaE8UFxdLRkZGu/5OOBwWj8cjPp+vU34LYzQaxWw2S3Z2druvBPF6vZq+c2ey+qStrU1aW1vF7/dLNBrtksBtMpkkKyurXSEumf2ya9cuefXVV0O33HKLxW63++hEQlRK27179w3Tpk078OKLL0r//v2TuiwdGaTOq6io6JABaDQaZceOHZ1Rf/4DGXLsFNEn9EkH90Tv3r077Mfy5+8K6ff7JRgMSjgcjvtvpKWlSXp6uphMJsnMzOyws6Aej0fOnDlDDxC4Ff+d4fV6paKiQmbPnv3iLbfcMpkOJESpwpNPPlnX0NDQ+8EHH0z6snRGkDrv0ksvlYEDB8Z01NlqtcqBAwekoaGhMwMs/30MOXaM6RP6pBM0NTX94xK5jhYKhcTv90sgEJBwOCzhcFgikYhEIhHR6/Wi1+slLS1N0tLSxGg0islk6pRLRx0OhzgcDunWrRsbnMCt+MC9f/9+2bx5c2T69OkFpaWlTXQfIUoVtm/fPmXcuHHrjxw5In369FF1kFIKAhRDTolDjj6hT9TE6XSKyWSSoqIi1a1bXV2d+P3+hJ4JBAJ3VwsEAnLLLbfIbbfdtveOO+4op+sIUaryyCOPNJnN5txp06YpYnnUHKQIUAw5JQ45+oQ+UaNAICBer1f69eunmnWqqamRjIwMxd+un8BN4D7vjTfekOXLl0cfeuihvmVlZZ/RcYQoVdm6devDlZWVTxw7dky6d++umOVSU5giPDHklDzk6BP6hICtbARoAncqBu5wOCx33XWXjBw58q2pU6d+n05TFz0lEKmsrPzlfffd13bgwAGCB+uhSFarVfR6vdTU1KhqvWpqakSv17NjTJ/QJ52oW7du4vV6U7YvampqxOv1EqA6kdFoFKvVKidOnBCHw5HS6+JwOOTEiRNitVqTfsby3XffldraWunTp890ukx9OBP1dy+++OKvZs6cec/rr7+uyEGdimelCE+dg6PKoE+QqJaWFjGZTIr4DfC3OX36tPj9frHZbGy4LuTz+cTv96fkWamamhoxmUxiNpuTviyRSETuv/9+ufrqqz+45557BtNZhCjVevnll42bN2/2jBgxIn3MmDGKXc5UCFOEJ4Zcqgw5+oQ+0XLIzsjIUGSYOn36NGeeCNwpH7iPHTsmd9xxh6xateraUaNGHaSjCFGq9sILL2xetGjRjbt27Ur6E7lTMUwRnhhyqTbk6BP6ROucTqfo9XopKiqS9PT0pC1HMBiUuro6iUQiXLZJ4FZF4J47d67069fv5KxZs/rRRYQo1du3b59tzZo1jhtvvFF/ww03pMQyKyFMEZ4Ycqk65OgT+gR/4/f7xePxiMVikV69enXZ5549e1bcbrdkZ2eLyWRiQxC4VRG4/+u//kuuvvpq2blz54SxY8duo3sIUZqwbt26P23cuPH/bNiwIalfEkoPVAQnhlyqDzn6hD7BNwcqo9EoNptNcnNzO+xvNzc3S0tLiwQCAYITgVu1gXvp0qWSk5NT//DDD/ekYwhRmrF3796+TzzxRM0DDzyg+9d//deUXpeODFWEJoac2oYc6BPE3idtbW0SjUbFYDCI2WwWs9ksJpNJjEajGAwG0el0Eo1GJRQKSSAQEL/fLz6fT3w+n4RCIdHpdJKZmcn2JnCrPnCfPn1arrzyStm2bdtPx48fv4YuIURpyq9//eu/vvLKK1c+/fTTotdzF3gw5NQ25ECfACBwd4bVq1eL3+9vXrBgAdcmq5yBEnxV3759f/r000+/c/z4cRk0aBAFQUozmUz/GEbhcFjOnDnToUPOYrFQZPqEPgHwv75HzotEIuL1esXr9V7wfUajMenPdOoIDQ0N8uSTT8rzzz+/hG5QP85EXcCyZcs+OX78+MVPPPGE6HSUCQAAABf2wgsvSG1trXfMmDHZdrs9QkXUjWvVLuCSSy752fbt2+XkyZMUAwAAABfkdDpl8eLFcs011/yaAEWI0rQxY8b88Wc/+1n91q1bKQYAAAAuaP/+/VJeXh7Mzc19mGoQojRv0KBBP1+yZImcPXuWYgAAAOArPB6PLF26VOx2+wt2uz1ARQhRmjdu3LhnH3roIddLL71EMQAAAPAVBw8elKuuuipcUFAwg2oQovB3V1111fL58+eLw+GgGAAAAPgHv98vq1atkpEjR+602+0eKkKIwt9ZrdbHb7/9dt+BAwcoBgAAAP7h7bffltzc3GiPHj1+SjUIUfgndrs9MmLEiOerqqrE7XZTEAAAAEgwGJRnnnlGJk2a9GpZWdkXVIQQhS/Jz8+/75prrgkdPHiQYgAAAECOHDkiTqdTevfuzVkoQhS+jt1ub7Pb7TtXrFghPp+PggAAAGhYJBKRDRs2yG233Xa4vLz8BBUhROECCgsLp/bs2TPyzjvvUAwAAAAN++CDD6S6ulq+853v3EM1CFH4BqWlpY3jx48/uGbNGgkGgxQEAABAg6LRqGzatEnuvvvuj0aNGnWIihCi8C2Kiop+4na75f3336cYAAAAGnTixAnZu3evXHzxxT+jGoQoxKC8vPyTm2+++f3nnntOIpEIBQEAANCYrVu3yowZM06PHj16H9UgRCFGF1100dTq6mr56KOPKAYAAICG1NbWyrJly+TSSy99mGpom44SxK+qqurTTz/9tGTevHkUAwAAQCNWrFgh6enpjXPnzi2gGtrGmagEDBgwYNaqVavk008/pRgAAAAaUF9fLwsWLJDBgwf/gmqAM1EJ+sUvfnEuGAwWzJgxg2IAAACo3Lp168ThcHiWLFlioRrgTFSCLr/88gXz58+Xzz//nGIAAACoWFNTkyxZskSGDRv2FNUAIaodJkyYsHLOnDnuffu4MQsAAICa7du3T374wx/6rVbrfKoBQlQ7/cu//Muv586dK01NTRQDAABAhVwulyxZskSuu+66Z+x2e4iKQETEQAkSZ7PZHr7ttttm/vnPfzZNmDCBggBAFwiFQhIOhzW7/n6/X7PrHg6HJRgManrbR6NRTa57JBJJWu+/8847csMNN4Ty8vJm8w0MQlQHsNvtkY0bN25esGDBlLa2tqR9oWp5oDqdTs0++DgYDIrL5dLstm9qahKv16vZbf/aa69p+vt36NChkpeXF9Xq+hcWFoZ1Op0m199kMkUzMzM1ezYgKyvLn5aWpsltr9frI2az2ZeMzx49evRmu93uE+DvuDtfO+3bty+npaVlXpK/VFr1er1bq9sgLS3tC51Op8nD0jqdzqfX6xs0vO0bdDqdV6OrHyorKzvNtzAAAAAAAAAAAAAAAAAAAAAAAAAAAAAAAAAAAAAAAAAAAAAAAAAAAAAAAAAAAAAAAAAAAAAAAAAAAAAAAAAAAAAAAAAAAAAAAAAAAAAAAAAAAAAAAAAAAAAAAAAAAAAAAAAAAAAAAAAAAAAAAAAAAAAAAAAAAAAAAAAAAAAAAAAAAAAAAAAAAAAAAAAAAAAAAAAAAAAAAAAAAAAAAAAAAAAAAAAAAAAAAAAAAAAAAAAAAAAAAAAAAAAAAAAAAAAAAAAAAAAAAAAAAAAAAAAAAAAAAAAAAAAAAAAAAAAAAAAAAAAAAAAAAAAAAAAAAAAAAAAAAAAAAAAAAAAAAAAAAAAAAAAAAAAAAAAAAAAAAAAAAAAAAAAAAAAAAAAAAAAAAAAAAAAAAAAAAAAAAAAAAAAAAAAAAAAAAAAAAAAAAAAAAAAAAAAAAAAAAAAAAAAAAAAAAAAAAAAAAAAAAAAAAAAAAAAAAAAAAAAAAAAAAAAAAAAAAAAAAAAAAAAAAAAAAAAAAAAAAAAAAAAAAAAAAAAAAAAAAAAAAN/kvwF328nKL/kIQgAAAABJRU5ErkJggg==;" vertex="1" parent="1">
          <mxGeometry y="360" width="482.09" height="180" as="geometry" />
        </mxCell>
        <mxCell id="WngwBCl97LLkA2d_fZeR-71" value="" style="shape=image;verticalLabelPosition=bottom;labelBackgroundColor=default;verticalAlign=top;aspect=fixed;imageAspect=0;image=data:image/png,iVBORw0KGgoAAAANSUhEUgAAA1EAAAE9CAYAAADqLOiiAAALFXpUWHRSYXcgcHJvZmlsZSB0eXBlIGV4aWYAAHjapZhpdiM5DoT/5ynmCNzA5TgkSL43N5jjzwdm2paXqu7qlspKVS4giAACAV3rf//d1394RS/1SlJqbjk7XqmlFjpfqrtf/Xx6l87neYl38Tn76fwV5/M1uPuW+zZX8330b+efB96OvvNNXgxVfS6Mzxdauo+hfjH0LBTNo8CX+Rhqj6EY7gv+MdDvbbncanndwlj38Xn+DgN/l33oOradf1b7+v9UiN4UTsYQVuQ0nzGG24Fof/GKnQvhfBIOu4nvIRY+Y8yPJwTkpzi9vxoebXM1/XjTJ1Tev31BS/YTo69opfDcEr8EOb8ffzx/efkZlRP6l5VTfU+TT+eJ8bg9+hJ9+9t71n32zC56yoQ6P5t62+L5xn0YSbZ0vXAtu8KfYKKcd+NdyWolFaZTVhx8bz6AxPbJT9/99usc1SsuprCuUPgSgoZ4TtZYQgsaDb9kb79DiS3OWMFSD+wphndf/Fm2Ob3OapWVp+fW4DFm6fDH7+tPH9jbSsF7iyXQ+xvfECzYuGHI2Se3gYjfT1DlBPjt/fVluEYQFIuylUgjsOM2McR/MEE8QEduFI53DfoyHwOEiKUFZ6iJ5EHNR/HZuxJC8Z5AVgDquB5iCgMEvEiYOBkSNQM2NdjSPFL8uTVI4PTFecgMJCRmKqyCUAeslIT8KamSQ12iJBHJUqRKk55jTllyziUbKfYSS7qKlFxKqaWVXmNNVWqupdbaam+hRUhTWm6l1dZa76zZsdx5unND7yOMONKQa+RRRh1tdCV9NKlo1qJVm/YZZpzwx8yzzDrb7MsvUmmlJSuvsupqq29Sbcdrpy0777Lrbru/o/bA+u39B6j5B7VwkLIbyztqnC3lzYQ3OhHDDMDClTyIF4OAhA6Gmas+pWDIGWauQX9RAk6KYTa9IQaCafkg279hd4UbUUPuX+F2lfQJt/BPkbsMuj9E7jtuP6E2rQ3pQeyuQguqi1Qf11ftoXZrdt+O168u/OnxLw3h+PK9bCVQE8/WWLPsbvuEQGFKp6XH1S/oMI+QSs9z0cucEjp1SmWv7lZoE/4unTSbdEUiQBpMPpwGLCrrubgC9i+NU+zCqr6UYd+qWzC/TwMT8pjoe3w2MR4TaS8NZuE6JqTMVxNlZ5+7ndnJ9bHO466YO4iCPfKyfe/a4h6OzLLzV3dp4vFykTWreNyIXYu5kY8b7jjyzQ0/MxuqPpoPeHCdbR0n3Bre/pdcOwYg52xO/OjCWf8862I8HlXKCCN5xF8Z6Y+RgpEo7RiRT0ZsIxcodj0BDeciIW3vIe3PXg4cFbflRO62xL23JbNjwXaV5JDbn/obf5YngHlYYHzZNzj6gKP0NUuuxyHr5hbc9gT3xaE3d37c1saX6zhzu3JAzh8gvzkzzJk1M6tXt3str1s6O6Lor3tLZab42Zv2eJOPNzCEeUMpeANb37FGM8wOfvOiXMTt16jkb45Y0r668rEhXLH94Mdl519wenHk4FRk3DjdzrwHWNpaFY1Tp9data4LroPgUCRoVzieYpkRKpZdOwTk61nzYBotRppxVw85sGKYC8qsafd0rd7y7FUGA0XrcyVr5lb5EEUbyxDPyCuXq8/Su4ymWugUDi7xa8UdO2FY45qzLAtJh1xKgXoGOdNbjCgpQ4aNbyVEcZINsfVSOyRa2ipNAn6hMdqcs16h97qFOkzw/NBaFpq870haECkEHvvIodE22EwaSEKyLtPLyOvWvNUfLsx4ZdODOSpKA0Ca+DEnvB77mCNBInWrwJNlOyWtc40r1umKpkSN48zKOlr27dojqmKE5C58wguyaBk7NyedbltDkOSrFke/2xInQZ04gyaCdfM8s9Dsnhh5xUPt9OJFP9yrEHtCYi1jCVHbdLhuPXXXLEEGkRo6SqGbL9rspNUD7rWNntsuOosI/V1SHfihMXiiEFUg8jlo4nRV347w3aVDGIVOPuiszS+F3C+SQXIledam36fZ6bILbpm02Lng/UV9xJWJ1UBt7LxOAkXLJGKTJA7bKjrbKf6QZblrIi9AMdWOoCvJN7biSp8J7Td1MDM5FSmEBWFQCv2Hs6TXWo5aY6wy2zkBmOAYqChFxEkEcG9Cm0qZolDHelIHzdyPBEBxFIvlYuUWlb7WlKymyxXL/oF+oXhi0KHmS0mTrTZLqRakxVERLWqNh38bsYAWYqfhdNoWHMEdW2knqYTMHESdUAcNPcu2hpXNDozjx9E8gCwzIAQWZEQGjxDHVUlaDJVAD25qDNLMNhVD/6UlEMO8Vrct2By5Mp4OSDMZ59QUdhE/1aWTkIM2vkkMtWs75CZUEjvvaLQZyAVpDdBDWpzbkreJmQBf0WJxNldxlEieG7RyorrAX/ditiotig3cwj+O0snLOXPIyAhN1AGJZABC63J4XshsZxlCv2r2TJnqu7ATsoGbJsRN816mJ6GvVGtiKWfbwyDpl82lIQKxZWAdEtgIE9YmBdIbkYVO02RkV7TkjqmNtt0WVeRfmMiu5qzYW0LQwUQXGOimRkAc/qL8EmiHDamJG2VlRwCb5jh604Kyw9ttmpkcWA08KuWTZ0BDOtQqOZJQIMlE1dre8q5RocyCgrRZLsHFdVSzg9jhiTYj/cL0BLxIkc7MuA4/MfrWQJZV0rVu0/70TcJOSlFUoAybM/i4yfA6qTgV5piq01OINlCHsi+IaqMNKE8RE7UBPtPhataupAvEumzDtQ6UG8kBTcDtlm3Zk9iQBbvIK19UE+7DN0GbQ4QjchnazOYqVI56E8XgG+1ZEhJ1vadaHY2Zeres88xu4yq7MVmTb4z6mXEiRp9zoM5sWXickZ+chYILClI6Ot86GSPC1AjZrQGtialaMGOmjKQ5QZFhjYg+4KkaxhWjGtXscWnZD0qkYZemAcm/b6PAxpzBwheZwj0m0xsFjcYVdBzdOdJb6D9SQmSqh5utv8SZGyGWkYyZ6SUN9iRPLLMxEMEGHGWTLzTfUElM0j+Txji7YyAR9vDRZA7bXqzVVsLLU7qFFIXiLvpOIBEZvLqlltN41Axshagkk7tJ407MsWi/MQ2UK7PTlEq/xlvKUtVo5PwWNjyDVjaloWk2L0e2VHIen0q1rufLoFBVaRjNUXZ+r2B0Ye0mypjhAoGUtS2TLnEiSMrJFlhChs60iHZsWXdLA4KApFEClJQxr9ZD9sy0YwzyqG/LhkHTL4xLSemP09gnWwv4aUKZk8hYs8ubcuSgJDMMOdiZVquBPSY4UJP0y7EQNQigqL4magCCTt40+1gp3iJqmFRHLy+biC8TUQxpKIMtR8qd+Jh+o4cvanNt8pf6Ojqu25DguUhV0oojnX1vJBU6G+8I8a3ZwHqkvceiq6fwsaxJPVtYTUc+q5b3Ve81r3vR8ReLGnfOW8O+rfusaj9xQgbKCHFT7D1i3beN+7b4dhspiRID2YE2oUi3rJHJO8q8tYKEQYUyrrMNubfRn23AM6bWutNhv9mFdM9p6dHV6BGGLluMeQB+S+0OdjXZmZ59DdsX+0cO277CMyq0yCP+FtbryEHiku8ZwHnTwDb4BdJQwodT7y4ZojrugeG49Tj15pLB08o9MVzHr186dfL9nlIet+z3tVfH7HfkfI+i+/ZtWbReHftdtOa3aF0f4eLB9nejFb9F6/oIl0Xr1akyxq6mwntdunIZeQqdqk1xrS5U8AgIyFmXy6nPC15CEuYeeZRioEN1D3UK6gXCUPp0g+eQC/L7nxquf/9jxj8zRKRmu/4PsIJ+z+znFnQAAAGFaUNDUElDQyBwcm9maWxlAAB4nH2RPUjDQBiG36aKfxUHM4g4ZKhOFkRFHKWKRbBQ2gqtOphc+gdNGpIUF0fBteDgz2LVwcVZVwdXQRD8AXF1cVJ0kRK/SwotYjy4u4f3vvfl7jtAqJeZZnVMAJpum8lYVMpkV6WuV4TQhx5aRZlZRjy1mIbv+LpHgO93EZ7lX/fn6FdzFgMCEvEcM0ybeIN4ZtM2OO8Ti6woq8TnxOMmXZD4keuKx2+cCy4LPFM008l5YpFYKrSx0sasaGrE08RhVdMpX8h4rHLe4qyVq6x5T/7CUE5fSXGd5ghiWEIcCUhQUEUJZdiI0K6TYiFJ51Ef/7DrT5BLIVcJjBwLqECD7PrB/+B3b6381KSXFIoCnS+O8zEKdO0CjZrjfB87TuMECD4DV3rLX6kDs5+k11pa+AgY2AYurluasgdc7gBDT4Zsyq4UpCnk88D7GX1TFhi8BXrXvL41z3H6AKSpV8s3wMEhMFag7HWfd3e39+3fmmb/fgAx43KNaCM7qQAADXZpVFh0WE1MOmNvbS5hZG9iZS54bXAAAAAAADw/eHBhY2tldCBiZWdpbj0i77u/IiBpZD0iVzVNME1wQ2VoaUh6cmVTek5UY3prYzlkIj8+Cjx4OnhtcG1ldGEgeG1sbnM6eD0iYWRvYmU6bnM6bWV0YS8iIHg6eG1wdGs9IlhNUCBDb3JlIDQuNC4wLUV4aXYyIj4KIDxyZGY6UkRGIHhtbG5zOnJkZj0iaHR0cDovL3d3dy53My5vcmcvMTk5OS8wMi8yMi1yZGYtc3ludGF4LW5zIyI+CiAgPHJkZjpEZXNjcmlwdGlvbiByZGY6YWJvdXQ9IiIKICAgIHhtbG5zOnhtcE1NPSJodHRwOi8vbnMuYWRvYmUuY29tL3hhcC8xLjAvbW0vIgogICAgeG1sbnM6c3RFdnQ9Imh0dHA6Ly9ucy5hZG9iZS5jb20veGFwLzEuMC9zVHlwZS9SZXNvdXJjZUV2ZW50IyIKICAgIHhtbG5zOkdJTVA9Imh0dHA6Ly93d3cuZ2ltcC5vcmcveG1wLyIKICAgIHhtbG5zOmRjPSJodHRwOi8vcHVybC5vcmcvZGMvZWxlbWVudHMvMS4xLyIKICAgIHhtbG5zOnRpZmY9Imh0dHA6Ly9ucy5hZG9iZS5jb20vdGlmZi8xLjAvIgogICAgeG1sbnM6eG1wPSJodHRwOi8vbnMuYWRvYmUuY29tL3hhcC8xLjAvIgogICB4bXBNTTpEb2N1bWVudElEPSJnaW1wOmRvY2lkOmdpbXA6YzVmNjBmNzQtZjIzMS00NzZkLThjYTMtNmQwNTVmMTVkMDY3IgogICB4bXBNTTpJbnN0YW5jZUlEPSJ4bXAuaWlkOjMxYjU0YzM4LTIwZmItNDJjYi1iYTczLTIzNjU3MzI1OTI3MyIKICAgeG1wTU06T3JpZ2luYWxEb2N1bWVudElEPSJ4bXAuZGlkOjk3OWM4MTZhLWJiMDgtNDNiMy05MWQxLTZiMTg0YzA0MWJhNSIKICAgR0lNUDpBUEk9IjIuMCIKICAgR0lNUDpQbGF0Zm9ybT0iV2luZG93cyIKICAgR0lNUDpUaW1lU3RhbXA9IjE3MDIyODY4NTg0MDczOTQiCiAgIEdJTVA6VmVyc2lvbj0iMi4xMC4zMiIKICAgZGM6Rm9ybWF0PSJpbWFnZS9wbmciCiAgIHRpZmY6T3JpZW50YXRpb249IjEiCiAgIHhtcDpDcmVhdG9yVG9vbD0iR0lNUCAyLjEwIgogICB4bXA6TWV0YWRhdGFEYXRlPSIyMDIzOjEyOjExVDEwOjI3OjM2KzAxOjAwIgogICB4bXA6TW9kaWZ5RGF0ZT0iMjAyMzoxMjoxMVQxMDoyNzozNiswMTowMCI+CiAgIDx4bXBNTTpIaXN0b3J5PgogICAgPHJkZjpTZXE+CiAgICAgPHJkZjpsaQogICAgICBzdEV2dDphY3Rpb249InNhdmVkIgogICAgICBzdEV2dDpjaGFuZ2VkPSIvIgogICAgICBzdEV2dDppbnN0YW5jZUlEPSJ4bXAuaWlkOmVmODk3OWIyLTliMTgtNDdjYy1hNjAxLWE1OTQ4YmJhYjc1ZSIKICAgICAgc3RFdnQ6c29mdHdhcmVBZ2VudD0iR2ltcCAyLjEwIChXaW5kb3dzKSIKICAgICAgc3RFdnQ6d2hlbj0iMjAyMy0xMi0xMVQxMDoyNzozOCIvPgogICAgPC9yZGY6U2VxPgogICA8L3htcE1NOkhpc3Rvcnk+CiAgPC9yZGY6RGVzY3JpcHRpb24+CiA8L3JkZjpSREY+CjwveDp4bXBtZXRhPgogICAgICAgICAgICAgICAgICAgICAgICAgICAgICAgICAgICAgICAgICAgICAgICAgICAgICAgICAgICAgICAgICAgICAgICAgICAgICAgICAgICAgICAgICAgICAgICAgICAgCiAgICAgICAgICAgICAgICAgICAgICAgICAgICAgICAgICAgICAgICAgICAgICAgICAgICAgICAgICAgICAgICAgICAgICAgICAgICAgICAgICAgICAgICAgICAgICAgICAgICAKICAgICAgICAgICAgICAgICAgICAgICAgICAgICAgICAgICAgICAgICAgICAgICAgICAgICAgICAgICAgICAgICAgICAgICAgICAgICAgICAgICAgICAgICAgICAgICAgICAgIAogICAgICAgICAgICAgICAgICAgICAgICAgICAgICAgICAgICAgICAgICAgICAgICAgICAgICAgICAgICAgICAgICAgICAgICAgICAgICAgICAgICAgICAgICAgICAgICAgICAgCiAgICAgICAgICAgICAgICAgICAgICAgICAgICAgICAgICAgICAgICAgICAgICAgICAgICAgICAgICAgICAgICAgICAgICAgICAgICAgICAgICAgICAgICAgICAgICAgICAgICAKICAgICAgICAgICAgICAgICAgICAgICAgICAgICAgICAgICAgICAgICAgICAgICAgICAgICAgICAgICAgICAgICAgICAgICAgICAgICAgICAgICAgICAgICAgICAgICAgICAgIAogICAgICAgICAgICAgICAgICAgICAgICAgICAgICAgICAgICAgICAgICAgICAgICAgICAgICAgICAgICAgICAgICAgICAgICAgICAgICAgICAgICAgICAgICAgICAgICAgICAgCiAgICAgICAgICAgICAgICAgICAgICAgICAgICAgICAgICAgICAgICAgICAgICAgICAgICAgICAgICAgICAgICAgICAgICAgICAgICAgICAgICAgICAgICAgICAgICAgICAgICAKICAgICAgICAgICAgICAgICAgICAgICAgICAgICAgICAgICAgICAgICAgICAgICAgICAgICAgICAgICAgICAgICAgICAgICAgICAgICAgICAgICAgICAgICAgICAgICAgICAgIAogICAgICAgICAgICAgICAgICAgICAgICAgICAgICAgICAgICAgICAgICAgICAgICAgICAgICAgICAgICAgICAgICAgICAgICAgICAgICAgICAgICAgICAgICAgICAgICAgICAgCiAgICAgICAgICAgICAgICAgICAgICAgICAgICAgICAgICAgICAgICAgICAgICAgICAgICAgICAgICAgICAgICAgICAgICAgICAgICAgICAgICAgICAgICAgICAgICAgICAgICAKICAgICAgICAgICAgICAgICAgICAgICAgICAgICAgICAgICAgICAgICAgICAgICAgICAgICAgICAgICAgICAgICAgICAgICAgICAgICAgICAgICAgICAgICAgICAgICAgICAgIAogICAgICAgICAgICAgICAgICAgICAgICAgICAgICAgICAgICAgICAgICAgICAgICAgICAgICAgICAgICAgICAgICAgICAgICAgICAgICAgICAgICAgICAgICAgICAgICAgICAgCiAgICAgICAgICAgICAgICAgICAgICAgICAgICAgICAgICAgICAgICAgICAgICAgICAgICAgICAgICAgICAgICAgICAgICAgICAgICAgICAgICAgICAgICAgICAgICAgICAgICAKICAgICAgICAgICAgICAgICAgICAgICAgICAgICAgICAgICAgICAgICAgICAgICAgICAgICAgICAgICAgICAgICAgICAgICAgICAgICAgICAgICAgICAgICAgICAgICAgICAgIAogICAgICAgICAgICAgICAgICAgICAgICAgICAgICAgICAgICAgICAgICAgICAgICAgICAgICAgICAgICAgICAgICAgICAgICAgICAgICAgICAgICAgICAgICAgICAgICAgICAgCiAgICAgICAgICAgICAgICAgICAgICAgICAgICAgICAgICAgICAgICAgICAgICAgICAgICAgICAgICAgICAgICAgICAgICAgICAgICAgICAgICAgICAgICAgICAgICAgICAgICAKICAgICAgICAgICAgICAgICAgICAgICAgICAgICAgICAgICAgICAgICAgICAgICAgICAgICAgICAgICAgICAgICAgICAgICAgICAgICAgICAgICAgICAgICAgICAgICAgICAgIAogICAgICAgICAgICAgICAgICAgICAgICAgICAgICAgICAgICAgICAgICAgICAgICAgICAgICAgICAgICAgICAgICAgICAgICAgICAgICAgICAgICAgICAgICAgICAgICAgICAgCiAgICAgICAgICAgICAgICAgICAgICAgICAgICAgICAgICAgICAgICAgICAgICAgICAgICAgICAgICAgICAgICAgICAgICAgICAgICAgICAgICAgICAgICAgICAgICAgICAgICAKICAgICAgICAgICAgICAgICAgICAgICAgICAgCjw/eHBhY2tldCBlbmQ9InciPz5NFEB+AAAABmJLR0QAdAB0AHTxgYjZAAAACXBIWXMAAA7DAAAOwwHHb6hkAAAAB3RJTUUH5wwLCRsmoY6ecgAAIABJREFUeNrt3Xt8FIW5//FnN5vdzWWzG5JAgJAGUVCKFJVzwIpHff1+m4RbuIRW6g2tPVBRKQoHL1XBgkUgyKXSA1SUn1hA+qPlWgELWsULlhIvgIonGCFgJNkke0n2vnv+aOnpUdHdzWVnZz7vv3ezM8882We+M7MzIgAAAAAAAAAAAAAAAAAAAAAAAAAAAAAAAAAAAAAAAAAAAAAAAAAAAAAAAAAAAAAAAAAAAAAAAAAAAAAAAAAAAAAAAAAAAAAAAAAAAAAAAAAAAAAAAAAAAAAAAAAAAAAAAAAAAAAAAAAAAAAAAAAAAAAAAAAAAAAAAAAAAAAAAAAAAAAAAAAAAAAAAAAAAAAAAAAAAAAAAAAAAAAAAAAAAAAAAAAAAAAAAAAAAAAAAAAAAAAAAAAAAAAAAAAAAAAAAAAAAAAAAAAAAAAAAAAAAAAAAAAAAAAAAAAAAAAAAAAAAAAAAAAAAAAAAAAAAAAAAAAAAAAAAAAAAAAAAAAAAAAAAAAAAAAAAAAAAAAAAAAAAAAAAAAAAAAAAAAAAAAAAAAAAAAAAAAAAAAAAAAAAAAAAAAAAAAAAAAAAAAAAAAAAAAAAAAAAAAAAAAAAAAAAAAAAAAAAAAAAAAAAAAAAAAAAAAAAAAAAAAAAAAAAAAAAAAAAAAAAAAAAAAAAAAAAIDW6bSwkvv27esWjUatbO7YhMPhPtFoVEclvl00Gs2KRCLdqETMvZUfjUaNVCKm3jKEw+F8KhFzb1kikYiZSsQmEAjkUYWYeysjHA7TW7H3Vg77EDH3liEQCGQodfkeeOCBPmyl5ISoqJJWdMiQIZKXx8yIVc+ePUWv11OIGJhMJsnOzqYQMbJYLGIwGChEDPR6Pb0V5/9ieno6hYhRVlYWRYhRenq6GI0c/4mV2WwWnY4cFYu0tDRF9taIESM6OyekvE7dk2loaKDCAAAAAFSFUw0AAAAAQIgCAAAAAEIUAAAAABCiAAAAAIAQBQAAAACEKAAAAAAAIQoAAAAACFEAAAAAQIgCAAAAAEIUAAAAABCiAAAAAIAQBQAAAAAgRAEAAAAAIQoAAAAACFEAAAAAQIgCAAAAAEIUAAAAABCiAAAAAACEKAAAAAAgRAEAAAAAIQoAAAAACFEAAAAAQIgCAAAAAEIUAAAAADVzuVwUgRAFAAAAIFavvPKK3H777UEqkcQQFQxSfwAAACAVtLW1yYoVK8Rut79INZIUov7t3/4tWl1dTYUBAACAFHDw4EHp379/pKCg4F6qkaQQNXny5Or169dLJBKhygAAAICCBQIBWbNmjYwdO/aPpaWlLVQkSSGqb9++Pz127JgcP36cKgMAAAAKdujQIUlPT4/27NlzOtVIYogaOXLkX37yk5/UbNy4UaLRKJUGAAAAFCgUCskzzzwjkydPPlhWVnaaiiQxRImI9O/ff8b27dvl5MmTVBoAAABQoOrqanE4HNKnT5+pVCM2us7+gAULFtQ7nc4ec+bModoAAACAgkQiEZk5c6Zce+21706fPv0KKhKbTn9O1OWXX/7wkiVL5OzZs1QbAAAAUJBjx47JX//6VykpKbmbasRO1xUf8tBDDzmtVmvOnXfeScUBAAAAhXjsscekf//+n9x33339qUbs9F3xIVddddXy+fPni8PhoOIAAACAAnzyySfyn//5n3LJJZf8B9VQYIiyWq2P33777b4DBw5QcQAAAEABtm3bJgsXLjw7ZsyY7VRDgSHKbrdHRowY8XxVVZW43W6qDgAAACTRqVOnZPHixTJw4MC5VEOhIUpEJD8//75rrrkm9MYbb1B1AAAAIIl27twpc+fObRo3btwzVEPBIcput7fZ7fZdK1euFJ/PR+UBAACAJPjiiy9k3rx58r3vfe+XVEPhIUpEpLCwcFqPHj0if/nLX6g8AAAAkAR79uyRWbNmtU6cOHEp1UiBEFVaWnpu3Lhxb6xevVqCwSDVBwAAALpQU1OTLFy4UIYPH/4rqpEiIUpEpE+fPne63W55//33qT4AAADQhfbv3y8/+MEP/Dab7VGqkUIhqry8/JObb775/Q0bNkgkEmELAAAAAF3A4/HI8uXL5brrrvt/drs9REUSZ0jGh1500UV3L1269PWPP/5YLrvsMrZCJxk9enSH/a3du3dTUADQIL/fL21tbRKNRsVgMIjZbBaz2Swmk0mMRqMYDAbR6XQSjUYlFApJIBAQv98vPp9PfD6fhEIh0el0kpmZKSaTiYICSfTnP/9Zhg4dGs7Pz59FNdpHl6wPrqqq+rS2trZk7lxuTa/E0ESoAgDthiaPxyNGo1FsNpvk5uZ22N9ubm6WlpYWCQQCkp2dTagicBO4u5DP55OJEyfKjBkzfnfrrbf+kIq0jyFZHzxgwID/mD179u+mTJkiJSUlbIkUCE4X+lwCFUMO9Al9oo7gZLFYpHfv3p32Obm5uf8rlJ09e1bcbjeBSiWBO9be0el0kp6eLunp6ZKVlUXg7iJvvvmmFBQURHv06HEP1Wg/XTI//PHHH28Ih8P59957L1siRcLTNyFMpcaQ46gy6BOc53Q6Ra/XS1FRkaSnpydtOYLBoNTV1UkkEhGr1cqGSZHA3atXry77XAJ3+//Hbr75Zrn11ltf/vGPf1xKRdrPkMwPHzx48BMTJkxYNmnSJOnZsydbI0XD05eXjTClrCHHUWXQJ/iypqYmycjIkH79+iliedLT06Vv374iInL69Gnxer3SrVs3NpRCA3dnfl9cyPnARuBOzOHDhyUcDkd79+7971SjY+iSvQBz5sxxde/e3TJlyhS2RoqGpwshTCV3yHFUGfQJvqylpUVMJpP06dNH8ct6+vRp8fv9YrPZ2HAKCNxK7BkCd2zC4bBMnz5dysrKDk2bNm04FVFJiPrd73735O233/7AkSNH+CdQSXgiTDHkGHL0CX2iLD6fT/x+v2LOPMWjpqZGTCaTmM1mNiSBm8CdgOrqapk1a5YsXrz4ypEjR1ZTEZWEqJdffln/+9//vu2KK64wTZgwgS2isgBFkGLIMeToE/ok+eE5Ly9P8vLyUnYdHA6HOBwOQjaBm8Adp2g0KnPmzJGrrrrq+L333vtdKqKiECUisnHjxvWPPPLIlP3790t2djbhSUXhiTDFkGPI0Sf0SXIEAgHxer0puf2/qS8yMjLEaDSygQncBO4YfPjhh3LTTTfJmjVr/u/o0aP3U5GOo1fCQhQUFEwfPnx4+K233iJAqThAaWH9umrIKekH4fHq16+fZGRkSFNTExuTPqFPOonT6ZRIJKKqAHW+LyKRiDidTjZyBwdup9Mp/fv3T+kAJSKSl5cn/fv3F6fTKYFAQPPbduvWrTJz5sxaAlTH0yllQdavX79r7dq1o7ds2aLZuzV1dsCYMGGCeL3eWEKtbNiwoVOXhTNSiQ05jiqDPkEsAbqzziaEQiHx+/0SCAQkHA5LOByWSCQikUhE9Hq96PV6SUtLk7S0NDEajWIymcRg6PgbAXO2oWMDt8lkkqKiItWtW11dnfj9fs3euObkyZMybNgw2bFjx00VFRWb6HaVhqi9e/f2rKqqOnPPPffovv/97xOgOkBFRUWHHIUxGo2yY8cOghRDjiFHn9AnCudwOKR3794ddml8KBSStrY28fv9EgwGJRwOx/030tLSJD09XUwmk2RmZnZYqPJ4PHLmzJmUP3NC4CZwd5annnpKsrKyvnjkkUcK6XYVhygRkTVr1ry1a9eu4WvXru2UfyQtBKjy8vJOX949e/YQpBhyDDn6hD5RYIAqLi6WjIyMdv2dcDgsHo9HfD5fp1wOZTQaxWw2S3Z2tqSlpbXrb3m9Xjl16hRBisBN4P6SM2fOyJAhQ2Tbtm13jR8/fjUdr/IQ9dJLLw169NFHP1i4cKEMGTKEABWjyspKaW1t7fJl79Wrlzz77LMEKYYcQ44+oU9UEKDa2tqktbVV/H6/RKPRzt8B0enEZDJJVlaWZGZmEqQI3ATuDrR27VppbW11/vKXv+RWp1oIUSIiK1euPHb48OGBVVVVotPpVF38jghQXXHm6dt0xJkpghRDjp0h+oQ+SbwHioqKJCsrK+HQ7HQ6pa2tLWnrkJmZKVarNeGw3draKnV1dfQEgZvvDhFpbGyUoUOHyvPPP/9oZWXlArpeIyFq9+7d102bNu3VzZs3y4ABAwhQF9BRv3fqyB2k9v5uiiDFkGMHmT6hT+LT3Nws+fn5kpubm9D7XS6XtLa2SigUSvq6GAwGycrKkpycnIRr0djYmHAtCNwEbrX47W9/KydPnvSOHTs22263R+h8jYQoEZFFixadPnPmTNGjjz5KgPoaSjj7dCHtPStFkGLIaWXI0Sf0SXu1tbWJ0WiUwsL4fzMeDoelpaUlqdv/m/rCZrMldMayvr5eAoFAuwI6gZvAncpcLpeMGDFCli9fvvzGG2+8j87vPHolLtTAgQNnr1y5Uk6dOsUW+idTpkxRdIA6H/DuuOMONlY7hlz37t0T3jF2uVzS0NCQ9B2jtrY2aWhoEJfLldD7s7KypHv37tLc3ExT0Cf0yQVEIpGEApTP55PGxkZFBqjzfdHY2Cg+ny/u9xYWFkokwoH3r6upxWJJKDSEw2FxOBzidDoVEaBE/ucgkMPhSOg3m7m5uWKxWBT7P9AeBw4ckLKysmC3bt0eoPM7l2J/dPTYY485DAZDt7vuuktVBU/0LNTkyZOlpaUlZdbTZrPJ5s2bE3qvVs9GcVT5qziqTJ/QJ1/P4XAkdMm72+0Wj8ejmJ3hb2IwGCQ7O1ssFkvc7/344485k/1PPB6PlJSUJBS4lf7QWqPRKFarVcxmc9zvra2t7bAb8ihlPowZM0YefPDBDTfffPNtdH7n0it1wYYMGbL4sccek3Pnzmk+QJWXl6dUgBIRaWlpSfisWWc/dFipOKr8VRxVpk/ok69yuVzSp0+fuN/ndDrF5XKlRIAS+dvZBpfLJU6nM+739unTJ+EznGoM3IkEKLfbLc3NzYoOUCJ/e8B4c3OzuN3uuN9bUlIiDodDNdv64MGD0r9//0hBQcEMOl/DIWrixImL7rvvvraXX35Z0xtI6ZfvqX35GXIMOfqEPlEag8EQ91k3p9MpHo8n5cJmJBIRj8cTd5DqyNvqE7gJ3KnA7/fLqlWrpKKiYndpaWmLQLshSkRk+PDhaxctWpRyZ2G+TiJnVyZPnqyKJktkPbR0Noohp50hR5/QJx0RpIuLi+MO0akYoL4cpOIN18XFxZo/AEPg1k7gPnTokFit1mhhYeE04g0hSrp16/bA6NGjg6+99prmAlRlZaUqwqPI3y7te+SRRwhSDDmOKtMn9Ek76xLv73za2trE7Xan/OWOkUhE3G533Jej5uXlafaSYAK3dgJ3KBSSdevWSWVl5etlZWWfE28IUWK32wPXX3/9/1+6dKkq76DyTVpbW1W1PocPH+a/jSGn6SFHn9An7dXS0iL5+fkxvz4YDIrL5Uro7mVKFA6HxeVySTAYjPk9+fn5qjkgSeAmcF9IdXX1+cdecBaKEPU/unfv/tOBAwdG3n777ZQscCJnU9T6O6JE1kvNZ6MYchxVpk/ok1hFo1EpKCiIO3TFEzhSQTAYjDsUFRQUdMmDpAncBO5kfU8+//zzMmXKlOry8vKPiDaEqH8oLS11jRo1av+qVasU/6PoZAUN1o8hx5CjT+gTdfdJU1NTXM/4aWlpSehOh6nA5/PFtX1zc3OlqalJM98ZBG5tBe6jR4/KkSNHpKSkZDp7VoSor+jdu/ed6enp0erqatVuiH79+smkSZM00XRaWU+GHEOOPqFPOorVao0rZKjtkvAva21tjSskxlM/AjeBO5VmxJYtW2T69OknRo0a9baAEPVlZWVlpydNmvTX9evXp9QlGvFcilZTUyMej0cTTRfveqrxkj6GnHaGHH1Cn7SX0+mM69lgLpdL9Ze9RiKRuO7EWFhYmNAdHwncBG4l++STT+QPf/iDXHzxxbOJNISoCyopKfnp8ePH5ejRo6rcEBUVFZpqPK2tL0NOu0OOPqFPupLL5RK/36+JdfX7/TxQl8Ct6cC9detWuf/+++vGjBmzk+4nRF3QyJEj/zp16tQTmzZtUt2lPH369NHE773+mdbWlyGn3SFHn9An7dW9e/eYX6u1O9nGs77x1JHATeBWus8++0yeeuopGThw4MN0MyHqW1188cU/27Fjh9TU1Ch+WeO5BG3IkCGabL5bb721U+rJkGPI0Sf0iVq0tLSIxWKJOVCo7fdw3yYYDMYcpCwWi+pvTEPg1k7g3rlzp8ybN89RUVGxgSlIiPpWY8aM2TNz5szPt27dqrohoEUNDQ2aXG+GnHaGHH1Cn7RXPFdeaK0PEllvNd+UhsCtncBdX18vjz/+uHzve997gihDiIrZd7/73Z9XVVXJmTNn2HpgyDHk6BP6RNV9kpOTE/NrtXqZdDzrHU89CdwEbqXas2ePzJ49u3XChAnL2LMiRMVs3Lhxzz388MPOl156SbHLGM+lZzfeeKOmG7CysrJT6sqQY8jRJ/RJqvdJOByO+UxaW1ubap4NlkidYu2H7t27q7ZOBG5tBO6mpiZ58sknZdiwYSuJMYSouF155ZXLHnroIVVcDqaVW65eiNrvJsaQ0+aQo0/ok47gdrtFp9PF9Fqv16vpWRLr+ut0OnG73aoMkgRubQTu/fv3yw9+8AO/zWZ7jBhDiIrbpEmTHp85c6b3wIEDbEEw5Bhy9Al9oso+iWeZtfrb2kTWX43/MwRubQRuj8cjVVVVct1116232+0h9qwIUQkZPnz4+sWLF6f0XZouu+wyOlBDGHLaGHL0CX3SUQwGQ0yvi0ajhKhgMObLNmOtK4GbwK20wP3qq6/K8OHDw/n5+fezV0WISlheXt79119/fejgwYMpW/x+/frRgSLyox/9SBPryZDTxpCjT+iTjmIymWJ6XTwPIFazWOsQa10J3ARuJQVur9crK1askJEjR2612+1t/McTohJmt9t9drt928qVK1P2aGwoxJlYEZHm5mZNrCdDTv1Djj6hTzpSRkZGTK/T8sPLE6lDrHUlcBO4lRS433rrLSkpKYn06NHjLrYgIardevTocVfv3r0j77zzDlsSDDmGHH1Cn6iqT8xmc8xhErHXIda6ErgJ3EoJ3IFAQFavXi3jxo37U2lpaRNbkBDVbqWlpY0VFRWvrV69miEChhxDjj6hT1TVJ0ajMabXafXmIonWIda6ErgJ3EoJ3IcPH5ZoNBrt1avXVLYeIarDFBUV/cTn80XfffddtiYYcgw5+oQ+UU2fxHoJYiQSoRHiqIMabyxB4FZv4A6Hw7J+/Xr50Y9+dKisrOwzth4hqsOUl5fX3HTTTe8999xzDBIw5Bhy9Al9opo+ifUujcy++OoQa10J3PSKEgL3e++9J7W1tVJcXMxvoQhRHa9v375Tjx07Jh9++CFbFAw5hhx9Qp+ook9ivWmGXq+nEeKoQ6x1JXDzvZHswB2NRmXjxo3y4x//+OjIkSO55IoQ1fFGjhz5lzvvvPPkxo0bVfnlCIYcQ065Q44+oU86S6x3cCVExVcHNd4Zl8CtzsD94Ycfyv79++Wiiy6awVYjRHWaAQMGzNi2bZt8+umnbFUw5Bhy9Al9kvJ9EutNM9LS0miEOOqgxpuyELjVGbi3bNkiM2fOrB09evQrbDVCVKcZM2bM7nvvvffcjh07UmJ5c3Jy6D6NYcipc8jRJ/RJZ4n19u3p6ek0Qhx1UOPjAQjc6gvcNTU1smrVKhkwYMAsthghqtNdfvnlv3jiiSfk888/V/yyejweyc3NpQNFJDMzUxPryZBT35CjT+iTzhTrg+TVeMvuRMRah1jrSuAmcCczcG/fvl0WLFjwxdixY3/PFiNEdbrx48eveuCBB9x79+5V/LJGIhHZtGkTHSgiv/+9Nr4fGHLqG3L0CX3Smfx+f0yvU+PDYxMRax1irSuBm8CdrMBdV1cnCxculEGDBs1jaxGiuszQoUOfnjdvnjQ18UBnMOQYcvQJfZK6fRLrJYg6nU7zoTo9PT3mm4eo8cYSBG51Be7du3fLz3/+85bx48evZmsRorqMzWZ7ZMqUKf5XXuE3eGDIMeToE/okdfsknks2CVHpnVJXAjeBu6s1NjbKwoUL5corr1zCNzwhqkvZ7fbItdde+8LixYvF7XYrfnm1fjR54MCBmllXhpx6hhx9Qp90BYvFEvNdBTMyMjTdC7GufzQaFYvForr1J3CrJ3Dv3btX7rzzTm9OTs6TxBRCVJfLz8+fcfXVV4fefPPNpHz+7t27Y35tqtxNsLM89dRTnVJXhhxDjj6hT1K9T9LS0uTcuXMxvTYzM1OzNxtJS0uL+QZF586dU2WdCNzqCNxOp1MWLVokI0aMWG2323kYICGq69nt9rbS0tI/rlixQpW3MgVDjiGXvCFHn9AnXcnlcsX8Wq1e2RDPesdTTwI3gbur63TgwAEpLy8P5ubmPsheEyEqaXr27PnvBQUF0cOHDyt+WUtKSjTZfFq5tTlDTl1Djj6hT7pSrJcravE7NZH1jqeeBG4Cd1dqbW2VqqoqsdvtG+12e0BAiEqW0tLSc+PHj39z3bp1SbkWPp5Lz1av1ubNV+K5tXmqX8rHkFPHkKNP6JOuZrPZYv59b2ZmpuYu8UxPT485RLndbrHZbKqtBYE7tQP366+/LldccUW4oKDgHuIJISrpiouLp9bX18v777+vqh0Cre0AMeQYckoZcvQJfZIMsZ6Z1GI/xLO+8dSRwE3g7srA7ff7ZdWqVTJq1KhddrvdQzwhRCVdeXn58SlTphzdsGGDRCLK/n2e1m4wodUbajDkUnfI0Sf0SSrIyckRk8mkiXU1mUySk5PDnhyBO+UD96FDhyQ3NzdaWFg4jS4mRClGv3797n7jjTfkxIkTXf7Z8V6CVlxcrImmu+yyyzq1jgw5hhx9Qp+oqU+sVqvU19fHFaT0enWPd71eH1eAqq+vF6vVyl4fgVtxgsGg/OY3v5HKysrXysrKvqAzCVGKMWrUqNemT59+asuWLYpf1rVr12qi6ZYtW8Z/HkMupYYcfUKfJJvT6Yz5tWazWbKyslRdj6ysrLgeOB1P/QjcBO6uDNzV1dXidDqlqKhoKtOMEKU4l1566exf/epX8tlnnyl+Wffs2aPqbaH29WPIqXPI0Sf0SbJ169ZNmpubY369zWaLK2SkErPZHNclms3NzdKtWzcCN4FbcYE7EonIhg0b5NZbbz1SXl5+QkCIUpqxY8f+bt68eY5du3Z1+WcncinaoUOHCFDtqB9DjiFHn9AnausTnU4nDQ0Ncb3HZrOp7vdy6enpcf/GraGhQdW3Nidwp27gPnr0qBw5ckRKSkruJpIQohRr8ODBC+fNmxfXkd1kKS4ultzcXFXV/zvf+Q7/bQy5lBxy9Al9ohQ2m00aGxvjChw5OTmqeZZYWlqa5OTkxBUMGxsbNXVjEQJ36gTuaDQqGzdulOnTp58YNWrU2+wZEaIUa+LEiUvnzJnj+dOf/tTlnx3v2ZT33ntPNm3apJovfpvNJmvWrOn0ujHkGHL0CX2i5j7R6/XicDjiek9mZqZYLJaUv9RTr9eLxWKJ+yYqDodD9Ze5ErhTM3CfOHFCdu7cKZdccsm9xBFClOINHTp0zYIFC6SlpUXxQUpEZPPmzaqoeyLroeYAxZBLnSFHn9AnSpOXlyenTp2K6z0Wi0Wys7NTNkzo9XrJzs4Wi8US1/tOnToleXl52ty5I3ArPnBv3bpVZs2aVTd69Oh9xBFClOLl5uY+OHHixMCrr76aMsuc6jdi4EYSDLlUHnL0CX2iRKFQSNra2uJ6j9VqTckgdT5AxXuDkLa2NgmFQpqeMQRu5Qbu2tpaWbZsmVx22WUPsTdEiEoJdrs9dP3117+4bNkyaW1t7fLPT/Tsyp49e1LuqKrNZks4QGnhLBRDjqPK9Al9kqicnBw5ffp03O+zWq2Sk5MjBoMhJdbTYDBITk5OQndYPH36NI9MIHArNnDv2LFDHn/88caKiooXiCKEqJRRUFBwz6BBg8JvvfVWUj4/0YCwefPmlHmgZs+ePRO+FFFLAYohp+whR5/QJ0oP1rW1tXG/z2KxSG5urhiNRkWvn9FolNzc3LhDtMjfjvJr9YALgVv5gbu+vl7mz58vgwcPnk+HpjadFlf6ueee++O6detGbt68OSkPqBw9enS73l9eXq7Y2rb38j0thiiRv11+NGDAgLjf53a7xePxpMSOo8FgSOjMgojIxx9/zE4RfUKffE1oNBqNUlhYGPd7w+GwtLS0xB3Mu0JmZqbYbLaEftdXX18vgUAgZQ46dhWPxyMlJSVxv8/n84nT6ZRAIKDowG21WhO6M2ltba1kZ2d36fI+++yz0tjY6FmyZImFzkxtei2udK9evf49IyMjeuTIkaR8fnuDwp49exR3FNFoNBKg2oGjyt885AhQ9Al98vVhw+12x3Ub/PPS0tIkLy9PrFarYs42GAwGsVqtkpeXl1CAam5uFrfbTYD6up09vT6hR7yYzWbJz89XbE0zMzMlPz8/oQBVX1/f5Wfpm5qaZPHixTJs2LDldGXq02l1xdesWfP2rl27hv3mN79J2l2s2ntGSkQZZ6U64uYRWg5Q53FU+euHHEeV6RP65Js5HA4pKipK+GHLoVBInE5nUvsiMzOzXYGutbVV6urqOODyLSEzPz8/4edQulwuaW1tVcQZbYPBIFlZWQlfhtfc3CyNjY1d/kzOLVu2yAcffOCvrKzMttvtIboyxQ9OaHXFi4uLf1JXVydHjx5N2jJ0RHD46KOPkrbjkJWVRYDq4J0Ijir/7yHHUWX6hD75dnl5eVJXVyderzfhbZCXlyd5eXliNpu77PlaOp1OzGbzPz470Z70er0EqBjk5ubKuXPnEr6xVk5OjhQUFCT9fy0zM1NCW8slAAALeklEQVQKCgoSDlCtra1y7ty5Lg9QLpdLFi1aJNdff/1zBCh10Gl55VesWPHhkSNHLl2yZElSH8rYEWekzuuKM1MdedtyAtRXcVSZo8r0CX2SaE8UFxdLRkZGu/5OOBwWj8cjPp+vU34LYzQaxWw2S3Z2druvBPF6vZq+c2ey+qStrU1aW1vF7/dLNBrtksBtMpkkKyurXSEumf2ya9cuefXVV0O33HKLxW63++hEQlRK27179w3Tpk078OKLL0r//v2TuiwdGaTOq6io6JABaDQaZceOHZ1Rf/4DGXLsFNEn9EkH90Tv3r077Mfy5+8K6ff7JRgMSjgcjvtvpKWlSXp6uphMJsnMzOyws6Aej0fOnDlDDxC4Ff+d4fV6paKiQmbPnv3iLbfcMpkOJESpwpNPPlnX0NDQ+8EHH0z6snRGkDrv0ksvlYEDB8Z01NlqtcqBAwekoaGhMwMs/30MOXaM6RP6pBM0NTX94xK5jhYKhcTv90sgEJBwOCzhcFgikYhEIhHR6/Wi1+slLS1N0tLSxGg0islk6pRLRx0OhzgcDunWrRsbnMCt+MC9f/9+2bx5c2T69OkFpaWlTXQfIUoVtm/fPmXcuHHrjxw5In369FF1kFIKAhRDTolDjj6hT9TE6XSKyWSSoqIi1a1bXV2d+P3+hJ4JBAJ3VwsEAnLLLbfIbbfdtveOO+4op+sIUaryyCOPNJnN5txp06YpYnnUHKQIUAw5JQ45+oQ+UaNAICBer1f69eunmnWqqamRjIwMxd+un8BN4D7vjTfekOXLl0cfeuihvmVlZZ/RcYQoVdm6devDlZWVTxw7dky6d++umOVSU5giPDHklDzk6BP6hICtbARoAncqBu5wOCx33XWXjBw58q2pU6d+n05TFz0lEKmsrPzlfffd13bgwAGCB+uhSFarVfR6vdTU1KhqvWpqakSv17NjTJ/QJ52oW7du4vV6U7YvampqxOv1EqA6kdFoFKvVKidOnBCHw5HS6+JwOOTEiRNitVqTfsby3XffldraWunTp890ukx9OBP1dy+++OKvZs6cec/rr7+uyEGdimelCE+dg6PKoE+QqJaWFjGZTIr4DfC3OX36tPj9frHZbGy4LuTz+cTv96fkWamamhoxmUxiNpuTviyRSETuv/9+ufrqqz+45557BtNZhCjVevnll42bN2/2jBgxIn3MmDGKXc5UCFOEJ4Zcqgw5+oQ+0XLIzsjIUGSYOn36NGeeCNwpH7iPHTsmd9xxh6xateraUaNGHaSjCFGq9sILL2xetGjRjbt27Ur6E7lTMUwRnhhyqTbk6BP6ROucTqfo9XopKiqS9PT0pC1HMBiUuro6iUQiXLZJ4FZF4J47d67069fv5KxZs/rRRYQo1du3b59tzZo1jhtvvFF/ww03pMQyKyFMEZ4Ycqk65OgT+gR/4/f7xePxiMVikV69enXZ5549e1bcbrdkZ2eLyWRiQxC4VRG4/+u//kuuvvpq2blz54SxY8duo3sIUZqwbt26P23cuPH/bNiwIalfEkoPVAQnhlyqDzn6hD7BNwcqo9EoNptNcnNzO+xvNzc3S0tLiwQCAYITgVu1gXvp0qWSk5NT//DDD/ekYwhRmrF3796+TzzxRM0DDzyg+9d//deUXpeODFWEJoac2oYc6BPE3idtbW0SjUbFYDCI2WwWs9ksJpNJjEajGAwG0el0Eo1GJRQKSSAQEL/fLz6fT3w+n4RCIdHpdJKZmcn2JnCrPnCfPn1arrzyStm2bdtPx48fv4YuIURpyq9//eu/vvLKK1c+/fTTotdzF3gw5NQ25ECfACBwd4bVq1eL3+9vXrBgAdcmq5yBEnxV3759f/r000+/c/z4cRk0aBAFQUozmUz/GEbhcFjOnDnToUPOYrFQZPqEPgHwv75HzotEIuL1esXr9V7wfUajMenPdOoIDQ0N8uSTT8rzzz+/hG5QP85EXcCyZcs+OX78+MVPPPGE6HSUCQAAABf2wgsvSG1trXfMmDHZdrs9QkXUjWvVLuCSSy752fbt2+XkyZMUAwAAABfkdDpl8eLFcs011/yaAEWI0rQxY8b88Wc/+1n91q1bKQYAAAAuaP/+/VJeXh7Mzc19mGoQojRv0KBBP1+yZImcPXuWYgAAAOArPB6PLF26VOx2+wt2uz1ARQhRmjdu3LhnH3roIddLL71EMQAAAPAVBw8elKuuuipcUFAwg2oQovB3V1111fL58+eLw+GgGAAAAPgHv98vq1atkpEjR+602+0eKkKIwt9ZrdbHb7/9dt+BAwcoBgAAAP7h7bffltzc3GiPHj1+SjUIUfgndrs9MmLEiOerqqrE7XZTEAAAAEgwGJRnnnlGJk2a9GpZWdkXVIQQhS/Jz8+/75prrgkdPHiQYgAAAECOHDkiTqdTevfuzVkoQhS+jt1ub7Pb7TtXrFghPp+PggAAAGhYJBKRDRs2yG233Xa4vLz8BBUhROECCgsLp/bs2TPyzjvvUAwAAAAN++CDD6S6ulq+853v3EM1CFH4BqWlpY3jx48/uGbNGgkGgxQEAABAg6LRqGzatEnuvvvuj0aNGnWIihCi8C2Kiop+4na75f3336cYAAAAGnTixAnZu3evXHzxxT+jGoQoxKC8vPyTm2+++f3nnntOIpEIBQEAANCYrVu3yowZM06PHj16H9UgRCFGF1100dTq6mr56KOPKAYAAICG1NbWyrJly+TSSy99mGpom44SxK+qqurTTz/9tGTevHkUAwAAQCNWrFgh6enpjXPnzi2gGtrGmagEDBgwYNaqVavk008/pRgAAAAaUF9fLwsWLJDBgwf/gmqAM1EJ+sUvfnEuGAwWzJgxg2IAAACo3Lp168ThcHiWLFlioRrgTFSCLr/88gXz58+Xzz//nGIAAACoWFNTkyxZskSGDRv2FNUAIaodJkyYsHLOnDnuffu4MQsAAICa7du3T374wx/6rVbrfKoBQlQ7/cu//Muv586dK01NTRQDAABAhVwulyxZskSuu+66Z+x2e4iKQETEQAkSZ7PZHr7ttttm/vnPfzZNmDCBggBAFwiFQhIOhzW7/n6/X7PrHg6HJRgManrbR6NRTa57JBJJWu+/8847csMNN4Ty8vJm8w0MQlQHsNvtkY0bN25esGDBlLa2tqR9oWp5oDqdTs0++DgYDIrL5dLstm9qahKv16vZbf/aa69p+vt36NChkpeXF9Xq+hcWFoZ1Op0m199kMkUzMzM1ezYgKyvLn5aWpsltr9frI2az2ZeMzx49evRmu93uE+DvuDtfO+3bty+npaVlXpK/VFr1er1bq9sgLS3tC51Op8nD0jqdzqfX6xs0vO0bdDqdV6OrHyorKzvNtzAAAAAAAAAAAAAAAAAAAAAAAAAAAAAAAAAAAAAAAAAAAAAAAAAAAAAAAAAAAAAAAAAAAAAAAAAAAAAAAAAAAAAAAAAAAAAAAAAAAAAAAAAAAAAAAAAAAAAAAAAAAAAAAAAAAAAAAAAAAAAAAAAAAAAAAAAAAAAAAAAAAAAAAAAAAAAAAAAAAAAAAAAAAAAAAAAAAAAAAAAAAAAAAAAAAAAAAAAAAAAAAAAAAAAAAAAAAAAAAAAAAAAAAAAAAAAAAAAAAAAAAAAAAAAAAAAAAAAAAAAAAAAAAAAAAAAAAAAAAAAAAAAAAAAAAAAAAAAAAAAAAAAAAAAAAAAAAAAAAAAAAAAAAAAAAAAAAAAAAAAAAAAAAAAAAAAAAAAAAAAAAAAAAAAAAAAAAAAAAAAAAAAAAAAAAAAAAAAAAAAAAAAAAAAAAAAAAAAAAAAAAAAAAAAAAAAAAAAAAAAAAAAAAAAAAAAAAAAAAAAAAAAAAAAAAAAAAAAAAAAAAAAAAAAAAAAAAAAAAAAAAAAAAAAAAAAAAAAAAAAAAN/kvwF328nKL/kIQgAAAABJRU5ErkJggg==;" vertex="1" parent="1">
          <mxGeometry x="10" y="190" width="482.09" height="180" as="geometry" />
        </mxCell>
        <mxCell id="WngwBCl97LLkA2d_fZeR-24" value="" style="shape=image;verticalLabelPosition=bottom;labelBackgroundColor=default;verticalAlign=top;aspect=fixed;imageAspect=0;image=data:image/png,iVBORw0KGgoAAAANSUhEUgAAA1EAAAE9CAYAAADqLOiiAAALFXpUWHRSYXcgcHJvZmlsZSB0eXBlIGV4aWYAAHjapZhpdiM5DoT/5ynmCNzA5TgkSL43N5jjzwdm2paXqu7qlspKVS4giAACAV3rf//d1394RS/1SlJqbjk7XqmlFjpfqrtf/Xx6l87neYl38Tn76fwV5/M1uPuW+zZX8330b+efB96OvvNNXgxVfS6Mzxdauo+hfjH0LBTNo8CX+Rhqj6EY7gv+MdDvbbncanndwlj38Xn+DgN/l33oOradf1b7+v9UiN4UTsYQVuQ0nzGG24Fof/GKnQvhfBIOu4nvIRY+Y8yPJwTkpzi9vxoebXM1/XjTJ1Tev31BS/YTo69opfDcEr8EOb8ffzx/efkZlRP6l5VTfU+TT+eJ8bg9+hJ9+9t71n32zC56yoQ6P5t62+L5xn0YSbZ0vXAtu8KfYKKcd+NdyWolFaZTVhx8bz6AxPbJT9/99usc1SsuprCuUPgSgoZ4TtZYQgsaDb9kb79DiS3OWMFSD+wphndf/Fm2Ob3OapWVp+fW4DFm6fDH7+tPH9jbSsF7iyXQ+xvfECzYuGHI2Se3gYjfT1DlBPjt/fVluEYQFIuylUgjsOM2McR/MEE8QEduFI53DfoyHwOEiKUFZ6iJ5EHNR/HZuxJC8Z5AVgDquB5iCgMEvEiYOBkSNQM2NdjSPFL8uTVI4PTFecgMJCRmKqyCUAeslIT8KamSQ12iJBHJUqRKk55jTllyziUbKfYSS7qKlFxKqaWVXmNNVWqupdbaam+hRUhTWm6l1dZa76zZsdx5unND7yOMONKQa+RRRh1tdCV9NKlo1qJVm/YZZpzwx8yzzDrb7MsvUmmlJSuvsupqq29Sbcdrpy0777Lrbru/o/bA+u39B6j5B7VwkLIbyztqnC3lzYQ3OhHDDMDClTyIF4OAhA6Gmas+pWDIGWauQX9RAk6KYTa9IQaCafkg279hd4UbUUPuX+F2lfQJt/BPkbsMuj9E7jtuP6E2rQ3pQeyuQguqi1Qf11ftoXZrdt+O168u/OnxLw3h+PK9bCVQE8/WWLPsbvuEQGFKp6XH1S/oMI+QSs9z0cucEjp1SmWv7lZoE/4unTSbdEUiQBpMPpwGLCrrubgC9i+NU+zCqr6UYd+qWzC/TwMT8pjoe3w2MR4TaS8NZuE6JqTMVxNlZ5+7ndnJ9bHO466YO4iCPfKyfe/a4h6OzLLzV3dp4vFykTWreNyIXYu5kY8b7jjyzQ0/MxuqPpoPeHCdbR0n3Bre/pdcOwYg52xO/OjCWf8862I8HlXKCCN5xF8Z6Y+RgpEo7RiRT0ZsIxcodj0BDeciIW3vIe3PXg4cFbflRO62xL23JbNjwXaV5JDbn/obf5YngHlYYHzZNzj6gKP0NUuuxyHr5hbc9gT3xaE3d37c1saX6zhzu3JAzh8gvzkzzJk1M6tXt3str1s6O6Lor3tLZab42Zv2eJOPNzCEeUMpeANb37FGM8wOfvOiXMTt16jkb45Y0r668rEhXLH94Mdl519wenHk4FRk3DjdzrwHWNpaFY1Tp9data4LroPgUCRoVzieYpkRKpZdOwTk61nzYBotRppxVw85sGKYC8qsafd0rd7y7FUGA0XrcyVr5lb5EEUbyxDPyCuXq8/Su4ymWugUDi7xa8UdO2FY45qzLAtJh1xKgXoGOdNbjCgpQ4aNbyVEcZINsfVSOyRa2ipNAn6hMdqcs16h97qFOkzw/NBaFpq870haECkEHvvIodE22EwaSEKyLtPLyOvWvNUfLsx4ZdODOSpKA0Ca+DEnvB77mCNBInWrwJNlOyWtc40r1umKpkSN48zKOlr27dojqmKE5C58wguyaBk7NyedbltDkOSrFke/2xInQZ04gyaCdfM8s9Dsnhh5xUPt9OJFP9yrEHtCYi1jCVHbdLhuPXXXLEEGkRo6SqGbL9rspNUD7rWNntsuOosI/V1SHfihMXiiEFUg8jlo4nRV347w3aVDGIVOPuiszS+F3C+SQXIledam36fZ6bILbpm02Lng/UV9xJWJ1UBt7LxOAkXLJGKTJA7bKjrbKf6QZblrIi9AMdWOoCvJN7biSp8J7Td1MDM5FSmEBWFQCv2Hs6TXWo5aY6wy2zkBmOAYqChFxEkEcG9Cm0qZolDHelIHzdyPBEBxFIvlYuUWlb7WlKymyxXL/oF+oXhi0KHmS0mTrTZLqRakxVERLWqNh38bsYAWYqfhdNoWHMEdW2knqYTMHESdUAcNPcu2hpXNDozjx9E8gCwzIAQWZEQGjxDHVUlaDJVAD25qDNLMNhVD/6UlEMO8Vrct2By5Mp4OSDMZ59QUdhE/1aWTkIM2vkkMtWs75CZUEjvvaLQZyAVpDdBDWpzbkreJmQBf0WJxNldxlEieG7RyorrAX/ditiotig3cwj+O0snLOXPIyAhN1AGJZABC63J4XshsZxlCv2r2TJnqu7ATsoGbJsRN816mJ6GvVGtiKWfbwyDpl82lIQKxZWAdEtgIE9YmBdIbkYVO02RkV7TkjqmNtt0WVeRfmMiu5qzYW0LQwUQXGOimRkAc/qL8EmiHDamJG2VlRwCb5jh604Kyw9ttmpkcWA08KuWTZ0BDOtQqOZJQIMlE1dre8q5RocyCgrRZLsHFdVSzg9jhiTYj/cL0BLxIkc7MuA4/MfrWQJZV0rVu0/70TcJOSlFUoAybM/i4yfA6qTgV5piq01OINlCHsi+IaqMNKE8RE7UBPtPhataupAvEumzDtQ6UG8kBTcDtlm3Zk9iQBbvIK19UE+7DN0GbQ4QjchnazOYqVI56E8XgG+1ZEhJ1vadaHY2Zeres88xu4yq7MVmTb4z6mXEiRp9zoM5sWXickZ+chYILClI6Ot86GSPC1AjZrQGtialaMGOmjKQ5QZFhjYg+4KkaxhWjGtXscWnZD0qkYZemAcm/b6PAxpzBwheZwj0m0xsFjcYVdBzdOdJb6D9SQmSqh5utv8SZGyGWkYyZ6SUN9iRPLLMxEMEGHGWTLzTfUElM0j+Txji7YyAR9vDRZA7bXqzVVsLLU7qFFIXiLvpOIBEZvLqlltN41Axshagkk7tJ407MsWi/MQ2UK7PTlEq/xlvKUtVo5PwWNjyDVjaloWk2L0e2VHIen0q1rufLoFBVaRjNUXZ+r2B0Ye0mypjhAoGUtS2TLnEiSMrJFlhChs60iHZsWXdLA4KApFEClJQxr9ZD9sy0YwzyqG/LhkHTL4xLSemP09gnWwv4aUKZk8hYs8ubcuSgJDMMOdiZVquBPSY4UJP0y7EQNQigqL4magCCTt40+1gp3iJqmFRHLy+biC8TUQxpKIMtR8qd+Jh+o4cvanNt8pf6Ojqu25DguUhV0oojnX1vJBU6G+8I8a3ZwHqkvceiq6fwsaxJPVtYTUc+q5b3Ve81r3vR8ReLGnfOW8O+rfusaj9xQgbKCHFT7D1i3beN+7b4dhspiRID2YE2oUi3rJHJO8q8tYKEQYUyrrMNubfRn23AM6bWutNhv9mFdM9p6dHV6BGGLluMeQB+S+0OdjXZmZ59DdsX+0cO277CMyq0yCP+FtbryEHiku8ZwHnTwDb4BdJQwodT7y4ZojrugeG49Tj15pLB08o9MVzHr186dfL9nlIet+z3tVfH7HfkfI+i+/ZtWbReHftdtOa3aF0f4eLB9nejFb9F6/oIl0Xr1akyxq6mwntdunIZeQqdqk1xrS5U8AgIyFmXy6nPC15CEuYeeZRioEN1D3UK6gXCUPp0g+eQC/L7nxquf/9jxj8zRKRmu/4PsIJ+z+znFnQAAAGFaUNDUElDQyBwcm9maWxlAAB4nH2RPUjDQBiG36aKfxUHM4g4ZKhOFkRFHKWKRbBQ2gqtOphc+gdNGpIUF0fBteDgz2LVwcVZVwdXQRD8AXF1cVJ0kRK/SwotYjy4u4f3vvfl7jtAqJeZZnVMAJpum8lYVMpkV6WuV4TQhx5aRZlZRjy1mIbv+LpHgO93EZ7lX/fn6FdzFgMCEvEcM0ybeIN4ZtM2OO8Ti6woq8TnxOMmXZD4keuKx2+cCy4LPFM008l5YpFYKrSx0sasaGrE08RhVdMpX8h4rHLe4qyVq6x5T/7CUE5fSXGd5ghiWEIcCUhQUEUJZdiI0K6TYiFJ51Ef/7DrT5BLIVcJjBwLqECD7PrB/+B3b6381KSXFIoCnS+O8zEKdO0CjZrjfB87TuMECD4DV3rLX6kDs5+k11pa+AgY2AYurluasgdc7gBDT4Zsyq4UpCnk88D7GX1TFhi8BXrXvL41z3H6AKSpV8s3wMEhMFag7HWfd3e39+3fmmb/fgAx43KNaCM7qQAADXZpVFh0WE1MOmNvbS5hZG9iZS54bXAAAAAAADw/eHBhY2tldCBiZWdpbj0i77u/IiBpZD0iVzVNME1wQ2VoaUh6cmVTek5UY3prYzlkIj8+Cjx4OnhtcG1ldGEgeG1sbnM6eD0iYWRvYmU6bnM6bWV0YS8iIHg6eG1wdGs9IlhNUCBDb3JlIDQuNC4wLUV4aXYyIj4KIDxyZGY6UkRGIHhtbG5zOnJkZj0iaHR0cDovL3d3dy53My5vcmcvMTk5OS8wMi8yMi1yZGYtc3ludGF4LW5zIyI+CiAgPHJkZjpEZXNjcmlwdGlvbiByZGY6YWJvdXQ9IiIKICAgIHhtbG5zOnhtcE1NPSJodHRwOi8vbnMuYWRvYmUuY29tL3hhcC8xLjAvbW0vIgogICAgeG1sbnM6c3RFdnQ9Imh0dHA6Ly9ucy5hZG9iZS5jb20veGFwLzEuMC9zVHlwZS9SZXNvdXJjZUV2ZW50IyIKICAgIHhtbG5zOkdJTVA9Imh0dHA6Ly93d3cuZ2ltcC5vcmcveG1wLyIKICAgIHhtbG5zOmRjPSJodHRwOi8vcHVybC5vcmcvZGMvZWxlbWVudHMvMS4xLyIKICAgIHhtbG5zOnRpZmY9Imh0dHA6Ly9ucy5hZG9iZS5jb20vdGlmZi8xLjAvIgogICAgeG1sbnM6eG1wPSJodHRwOi8vbnMuYWRvYmUuY29tL3hhcC8xLjAvIgogICB4bXBNTTpEb2N1bWVudElEPSJnaW1wOmRvY2lkOmdpbXA6YzVmNjBmNzQtZjIzMS00NzZkLThjYTMtNmQwNTVmMTVkMDY3IgogICB4bXBNTTpJbnN0YW5jZUlEPSJ4bXAuaWlkOjMxYjU0YzM4LTIwZmItNDJjYi1iYTczLTIzNjU3MzI1OTI3MyIKICAgeG1wTU06T3JpZ2luYWxEb2N1bWVudElEPSJ4bXAuZGlkOjk3OWM4MTZhLWJiMDgtNDNiMy05MWQxLTZiMTg0YzA0MWJhNSIKICAgR0lNUDpBUEk9IjIuMCIKICAgR0lNUDpQbGF0Zm9ybT0iV2luZG93cyIKICAgR0lNUDpUaW1lU3RhbXA9IjE3MDIyODY4NTg0MDczOTQiCiAgIEdJTVA6VmVyc2lvbj0iMi4xMC4zMiIKICAgZGM6Rm9ybWF0PSJpbWFnZS9wbmciCiAgIHRpZmY6T3JpZW50YXRpb249IjEiCiAgIHhtcDpDcmVhdG9yVG9vbD0iR0lNUCAyLjEwIgogICB4bXA6TWV0YWRhdGFEYXRlPSIyMDIzOjEyOjExVDEwOjI3OjM2KzAxOjAwIgogICB4bXA6TW9kaWZ5RGF0ZT0iMjAyMzoxMjoxMVQxMDoyNzozNiswMTowMCI+CiAgIDx4bXBNTTpIaXN0b3J5PgogICAgPHJkZjpTZXE+CiAgICAgPHJkZjpsaQogICAgICBzdEV2dDphY3Rpb249InNhdmVkIgogICAgICBzdEV2dDpjaGFuZ2VkPSIvIgogICAgICBzdEV2dDppbnN0YW5jZUlEPSJ4bXAuaWlkOmVmODk3OWIyLTliMTgtNDdjYy1hNjAxLWE1OTQ4YmJhYjc1ZSIKICAgICAgc3RFdnQ6c29mdHdhcmVBZ2VudD0iR2ltcCAyLjEwIChXaW5kb3dzKSIKICAgICAgc3RFdnQ6d2hlbj0iMjAyMy0xMi0xMVQxMDoyNzozOCIvPgogICAgPC9yZGY6U2VxPgogICA8L3htcE1NOkhpc3Rvcnk+CiAgPC9yZGY6RGVzY3JpcHRpb24+CiA8L3JkZjpSREY+CjwveDp4bXBtZXRhPgogICAgICAgICAgICAgICAgICAgICAgICAgICAgICAgICAgICAgICAgICAgICAgICAgICAgICAgICAgICAgICAgICAgICAgICAgICAgICAgICAgICAgICAgICAgICAgICAgICAgCiAgICAgICAgICAgICAgICAgICAgICAgICAgICAgICAgICAgICAgICAgICAgICAgICAgICAgICAgICAgICAgICAgICAgICAgICAgICAgICAgICAgICAgICAgICAgICAgICAgICAKICAgICAgICAgICAgICAgICAgICAgICAgICAgICAgICAgICAgICAgICAgICAgICAgICAgICAgICAgICAgICAgICAgICAgICAgICAgICAgICAgICAgICAgICAgICAgICAgICAgIAogICAgICAgICAgICAgICAgICAgICAgICAgICAgICAgICAgICAgICAgICAgICAgICAgICAgICAgICAgICAgICAgICAgICAgICAgICAgICAgICAgICAgICAgICAgICAgICAgICAgCiAgICAgICAgICAgICAgICAgICAgICAgICAgICAgICAgICAgICAgICAgICAgICAgICAgICAgICAgICAgICAgICAgICAgICAgICAgICAgICAgICAgICAgICAgICAgICAgICAgICAKICAgICAgICAgICAgICAgICAgICAgICAgICAgICAgICAgICAgICAgICAgICAgICAgICAgICAgICAgICAgICAgICAgICAgICAgICAgICAgICAgICAgICAgICAgICAgICAgICAgIAogICAgICAgICAgICAgICAgICAgICAgICAgICAgICAgICAgICAgICAgICAgICAgICAgICAgICAgICAgICAgICAgICAgICAgICAgICAgICAgICAgICAgICAgICAgICAgICAgICAgCiAgICAgICAgICAgICAgICAgICAgICAgICAgICAgICAgICAgICAgICAgICAgICAgICAgICAgICAgICAgICAgICAgICAgICAgICAgICAgICAgICAgICAgICAgICAgICAgICAgICAKICAgICAgICAgICAgICAgICAgICAgICAgICAgICAgICAgICAgICAgICAgICAgICAgICAgICAgICAgICAgICAgICAgICAgICAgICAgICAgICAgICAgICAgICAgICAgICAgICAgIAogICAgICAgICAgICAgICAgICAgICAgICAgICAgICAgICAgICAgICAgICAgICAgICAgICAgICAgICAgICAgICAgICAgICAgICAgICAgICAgICAgICAgICAgICAgICAgICAgICAgCiAgICAgICAgICAgICAgICAgICAgICAgICAgICAgICAgICAgICAgICAgICAgICAgICAgICAgICAgICAgICAgICAgICAgICAgICAgICAgICAgICAgICAgICAgICAgICAgICAgICAKICAgICAgICAgICAgICAgICAgICAgICAgICAgICAgICAgICAgICAgICAgICAgICAgICAgICAgICAgICAgICAgICAgICAgICAgICAgICAgICAgICAgICAgICAgICAgICAgICAgIAogICAgICAgICAgICAgICAgICAgICAgICAgICAgICAgICAgICAgICAgICAgICAgICAgICAgICAgICAgICAgICAgICAgICAgICAgICAgICAgICAgICAgICAgICAgICAgICAgICAgCiAgICAgICAgICAgICAgICAgICAgICAgICAgICAgICAgICAgICAgICAgICAgICAgICAgICAgICAgICAgICAgICAgICAgICAgICAgICAgICAgICAgICAgICAgICAgICAgICAgICAKICAgICAgICAgICAgICAgICAgICAgICAgICAgICAgICAgICAgICAgICAgICAgICAgICAgICAgICAgICAgICAgICAgICAgICAgICAgICAgICAgICAgICAgICAgICAgICAgICAgIAogICAgICAgICAgICAgICAgICAgICAgICAgICAgICAgICAgICAgICAgICAgICAgICAgICAgICAgICAgICAgICAgICAgICAgICAgICAgICAgICAgICAgICAgICAgICAgICAgICAgCiAgICAgICAgICAgICAgICAgICAgICAgICAgICAgICAgICAgICAgICAgICAgICAgICAgICAgICAgICAgICAgICAgICAgICAgICAgICAgICAgICAgICAgICAgICAgICAgICAgICAKICAgICAgICAgICAgICAgICAgICAgICAgICAgICAgICAgICAgICAgICAgICAgICAgICAgICAgICAgICAgICAgICAgICAgICAgICAgICAgICAgICAgICAgICAgICAgICAgICAgIAogICAgICAgICAgICAgICAgICAgICAgICAgICAgICAgICAgICAgICAgICAgICAgICAgICAgICAgICAgICAgICAgICAgICAgICAgICAgICAgICAgICAgICAgICAgICAgICAgICAgCiAgICAgICAgICAgICAgICAgICAgICAgICAgICAgICAgICAgICAgICAgICAgICAgICAgICAgICAgICAgICAgICAgICAgICAgICAgICAgICAgICAgICAgICAgICAgICAgICAgICAKICAgICAgICAgICAgICAgICAgICAgICAgICAgCjw/eHBhY2tldCBlbmQ9InciPz5NFEB+AAAABmJLR0QAdAB0AHTxgYjZAAAACXBIWXMAAA7DAAAOwwHHb6hkAAAAB3RJTUUH5wwLCRsmoY6ecgAAIABJREFUeNrt3Xt8FIW5//FnN5vdzWWzG5JAgJAGUVCKFJVzwIpHff1+m4RbuIRW6g2tPVBRKQoHL1XBgkUgyKXSA1SUn1hA+qPlWgELWsULlhIvgIonGCFgJNkke0n2vnv+aOnpUdHdzWVnZz7vv3ezM8882We+M7MzIgAAAAAAAAAAAAAAAAAAAAAAAAAAAAAAAAAAAAAAAAAAAAAAAAAAAAAAAAAAAAAAAAAAAAAAAAAAAAAAAAAAAAAAAAAAAAAAAAAAAAAAAAAAAAAAAAAAAAAAAAAAAAAAAAAAAAAAAAAAAAAAAAAAAAAAAAAAAAAAAAAAAAAAAAAAAAAAAAAAAAAAAAAAAAAAAAAAAAAAAAAAAAAAAAAAAAAAAAAAAAAAAAAAAAAAAAAAAAAAAAAAAAAAAAAAAAAAAAAAAAAAAAAAAAAAAAAAAAAAAAAAAAAAAAAAAAAAAAAAAAAAAAAAAAAAAAAAAAAAAAAAAAAAAAAAAAAAAAAAAAAAAAAAAAAAAAAAAAAAAAAAAAAAAAAAAAAAAAAAAAAAAAAAAAAAAAAAAAAAAAAAAAAAAAAAAAAAAAAAAAAAAAAAAAAAAAAAAAAAAAAAAAAAAAAAAAAAAAAAAAAAAAAAAAAAAAAAAAAAAAAAAAAAAAAAAAAAAAAAAAAAAAAAAAAAAIDW6bSwkvv27esWjUatbO7YhMPhPtFoVEclvl00Gs2KRCLdqETMvZUfjUaNVCKm3jKEw+F8KhFzb1kikYiZSsQmEAjkUYWYeysjHA7TW7H3Vg77EDH3liEQCGQodfkeeOCBPmyl5ISoqJJWdMiQIZKXx8yIVc+ePUWv11OIGJhMJsnOzqYQMbJYLGIwGChEDPR6Pb0V5/9ieno6hYhRVlYWRYhRenq6GI0c/4mV2WwWnY4cFYu0tDRF9taIESM6OyekvE7dk2loaKDCAAAAAFSFUw0AAAAAQIgCAAAAAEIUAAAAABCiAAAAAIAQBQAAAACEKAAAAAAAIQoAAAAACFEAAAAAQIgCAAAAAEIUAAAAABCiAAAAAIAQBQAAAAAgRAEAAAAAIQoAAAAACFEAAAAAQIgCAAAAAEIUAAAAABCiAAAAAACEKAAAAAAgRAEAAAAAIQoAAAAACFEAAAAAQIgCAAAAAEIUAAAAADVzuVwUgRAFAAAAIFavvPKK3H777UEqkcQQFQxSfwAAACAVtLW1yYoVK8Rut79INZIUov7t3/4tWl1dTYUBAACAFHDw4EHp379/pKCg4F6qkaQQNXny5Or169dLJBKhygAAAICCBQIBWbNmjYwdO/aPpaWlLVQkSSGqb9++Pz127JgcP36cKgMAAAAKdujQIUlPT4/27NlzOtVIYogaOXLkX37yk5/UbNy4UaLRKJUGAAAAFCgUCskzzzwjkydPPlhWVnaaiiQxRImI9O/ff8b27dvl5MmTVBoAAABQoOrqanE4HNKnT5+pVCM2us7+gAULFtQ7nc4ec+bModoAAACAgkQiEZk5c6Zce+21706fPv0KKhKbTn9O1OWXX/7wkiVL5OzZs1QbAAAAUJBjx47JX//6VykpKbmbasRO1xUf8tBDDzmtVmvOnXfeScUBAAAAhXjsscekf//+n9x33339qUbs9F3xIVddddXy+fPni8PhoOIAAACAAnzyySfyn//5n3LJJZf8B9VQYIiyWq2P33777b4DBw5QcQAAAEABtm3bJgsXLjw7ZsyY7VRDgSHKbrdHRowY8XxVVZW43W6qDgAAACTRqVOnZPHixTJw4MC5VEOhIUpEJD8//75rrrkm9MYbb1B1AAAAIIl27twpc+fObRo3btwzVEPBIcput7fZ7fZdK1euFJ/PR+UBAACAJPjiiy9k3rx58r3vfe+XVEPhIUpEpLCwcFqPHj0if/nLX6g8AAAAkAR79uyRWbNmtU6cOHEp1UiBEFVaWnpu3Lhxb6xevVqCwSDVBwAAALpQU1OTLFy4UIYPH/4rqpEiIUpEpE+fPne63W55//33qT4AAADQhfbv3y8/+MEP/Dab7VGqkUIhqry8/JObb775/Q0bNkgkEmELAAAAAF3A4/HI8uXL5brrrvt/drs9REUSZ0jGh1500UV3L1269PWPP/5YLrvsMrZCJxk9enSH/a3du3dTUADQIL/fL21tbRKNRsVgMIjZbBaz2Swmk0mMRqMYDAbR6XQSjUYlFApJIBAQv98vPp9PfD6fhEIh0el0kpmZKSaTiYICSfTnP/9Zhg4dGs7Pz59FNdpHl6wPrqqq+rS2trZk7lxuTa/E0ESoAgDthiaPxyNGo1FsNpvk5uZ22N9ubm6WlpYWCQQCkp2dTagicBO4u5DP55OJEyfKjBkzfnfrrbf+kIq0jyFZHzxgwID/mD179u+mTJkiJSUlbIkUCE4X+lwCFUMO9Al9oo7gZLFYpHfv3p32Obm5uf8rlJ09e1bcbjeBSiWBO9be0el0kp6eLunp6ZKVlUXg7iJvvvmmFBQURHv06HEP1Wg/XTI//PHHH28Ih8P59957L1siRcLTNyFMpcaQ46gy6BOc53Q6Ra/XS1FRkaSnpydtOYLBoNTV1UkkEhGr1cqGSZHA3atXry77XAJ3+//Hbr75Zrn11ltf/vGPf1xKRdrPkMwPHzx48BMTJkxYNmnSJOnZsydbI0XD05eXjTClrCHHUWXQJ/iypqYmycjIkH79+iliedLT06Vv374iInL69Gnxer3SrVs3NpRCA3dnfl9cyPnARuBOzOHDhyUcDkd79+7971SjY+iSvQBz5sxxde/e3TJlyhS2RoqGpwshTCV3yHFUGfQJvqylpUVMJpP06dNH8ct6+vRp8fv9YrPZ2HAKCNxK7BkCd2zC4bBMnz5dysrKDk2bNm04FVFJiPrd73735O233/7AkSNH+CdQSXgiTDHkGHL0CX2iLD6fT/x+v2LOPMWjpqZGTCaTmM1mNiSBm8CdgOrqapk1a5YsXrz4ypEjR1ZTEZWEqJdffln/+9//vu2KK64wTZgwgS2isgBFkGLIMeToE/ok+eE5Ly9P8vLyUnYdHA6HOBwOQjaBm8Adp2g0KnPmzJGrrrrq+L333vtdKqKiECUisnHjxvWPPPLIlP3790t2djbhSUXhiTDFkGPI0Sf0SXIEAgHxer0puf2/qS8yMjLEaDSygQncBO4YfPjhh3LTTTfJmjVr/u/o0aP3U5GOo1fCQhQUFEwfPnx4+K233iJAqThAaWH9umrIKekH4fHq16+fZGRkSFNTExuTPqFPOonT6ZRIJKKqAHW+LyKRiDidTjZyBwdup9Mp/fv3T+kAJSKSl5cn/fv3F6fTKYFAQPPbduvWrTJz5sxaAlTH0yllQdavX79r7dq1o7ds2aLZuzV1dsCYMGGCeL3eWEKtbNiwoVOXhTNSiQ05jiqDPkEsAbqzziaEQiHx+/0SCAQkHA5LOByWSCQikUhE9Hq96PV6SUtLk7S0NDEajWIymcRg6PgbAXO2oWMDt8lkkqKiItWtW11dnfj9fs3euObkyZMybNgw2bFjx00VFRWb6HaVhqi9e/f2rKqqOnPPPffovv/97xOgOkBFRUWHHIUxGo2yY8cOghRDjiFHn9AnCudwOKR3794ddml8KBSStrY28fv9EgwGJRwOx/030tLSJD09XUwmk2RmZnZYqPJ4PHLmzJmUP3NC4CZwd5annnpKsrKyvnjkkUcK6XYVhygRkTVr1ry1a9eu4WvXru2UfyQtBKjy8vJOX949e/YQpBhyDDn6hD5RYIAqLi6WjIyMdv2dcDgsHo9HfD5fp1wOZTQaxWw2S3Z2tqSlpbXrb3m9Xjl16hRBisBN4P6SM2fOyJAhQ2Tbtm13jR8/fjUdr/IQ9dJLLw169NFHP1i4cKEMGTKEABWjyspKaW1t7fJl79Wrlzz77LMEKYYcQ44+oU9UEKDa2tqktbVV/H6/RKPRzt8B0enEZDJJVlaWZGZmEqQI3ATuDrR27VppbW11/vKXv+RWp1oIUSIiK1euPHb48OGBVVVVotPpVF38jghQXXHm6dt0xJkpghRDjp0h+oQ+SbwHioqKJCsrK+HQ7HQ6pa2tLWnrkJmZKVarNeGw3draKnV1dfQEgZvvDhFpbGyUoUOHyvPPP/9oZWXlArpeIyFq9+7d102bNu3VzZs3y4ABAwhQF9BRv3fqyB2k9v5uiiDFkGMHmT6hT+LT3Nws+fn5kpubm9D7XS6XtLa2SigUSvq6GAwGycrKkpycnIRr0djYmHAtCNwEbrX47W9/KydPnvSOHTs22263R+h8jYQoEZFFixadPnPmTNGjjz5KgPoaSjj7dCHtPStFkGLIaWXI0Sf0SXu1tbWJ0WiUwsL4fzMeDoelpaUlqdv/m/rCZrMldMayvr5eAoFAuwI6gZvAncpcLpeMGDFCli9fvvzGG2+8j87vPHolLtTAgQNnr1y5Uk6dOsUW+idTpkxRdIA6H/DuuOMONlY7hlz37t0T3jF2uVzS0NCQ9B2jtrY2aWhoEJfLldD7s7KypHv37tLc3ExT0Cf0yQVEIpGEApTP55PGxkZFBqjzfdHY2Cg+ny/u9xYWFkokwoH3r6upxWJJKDSEw2FxOBzidDoVEaBE/ucgkMPhSOg3m7m5uWKxWBT7P9AeBw4ckLKysmC3bt0eoPM7l2J/dPTYY485DAZDt7vuuktVBU/0LNTkyZOlpaUlZdbTZrPJ5s2bE3qvVs9GcVT5qziqTJ/QJ1/P4XAkdMm72+0Wj8ejmJ3hb2IwGCQ7O1ssFkvc7/344485k/1PPB6PlJSUJBS4lf7QWqPRKFarVcxmc9zvra2t7bAb8ihlPowZM0YefPDBDTfffPNtdH7n0it1wYYMGbL4sccek3Pnzmk+QJWXl6dUgBIRaWlpSfisWWc/dFipOKr8VRxVpk/ok69yuVzSp0+fuN/ndDrF5XKlRIAS+dvZBpfLJU6nM+739unTJ+EznGoM3IkEKLfbLc3NzYoOUCJ/e8B4c3OzuN3uuN9bUlIiDodDNdv64MGD0r9//0hBQcEMOl/DIWrixImL7rvvvraXX35Z0xtI6ZfvqX35GXIMOfqEPlEag8EQ91k3p9MpHo8n5cJmJBIRj8cTd5DqyNvqE7gJ3KnA7/fLqlWrpKKiYndpaWmLQLshSkRk+PDhaxctWpRyZ2G+TiJnVyZPnqyKJktkPbR0Noohp50hR5/QJx0RpIuLi+MO0akYoL4cpOIN18XFxZo/AEPg1k7gPnTokFit1mhhYeE04g0hSrp16/bA6NGjg6+99prmAlRlZaUqwqPI3y7te+SRRwhSDDmOKtMn9Ek76xLv73za2trE7Xan/OWOkUhE3G533Jej5uXlafaSYAK3dgJ3KBSSdevWSWVl5etlZWWfE28IUWK32wPXX3/9/1+6dKkq76DyTVpbW1W1PocPH+a/jSGn6SFHn9An7dXS0iL5+fkxvz4YDIrL5Uro7mVKFA6HxeVySTAYjPk9+fn5qjkgSeAmcF9IdXX1+cdecBaKEPU/unfv/tOBAwdG3n777ZQscCJnU9T6O6JE1kvNZ6MYchxVpk/ok1hFo1EpKCiIO3TFEzhSQTAYjDsUFRQUdMmDpAncBO5kfU8+//zzMmXKlOry8vKPiDaEqH8oLS11jRo1av+qVasU/6PoZAUN1o8hx5CjT+gTdfdJU1NTXM/4aWlpSehOh6nA5/PFtX1zc3OlqalJM98ZBG5tBe6jR4/KkSNHpKSkZDp7VoSor+jdu/ed6enp0erqatVuiH79+smkSZM00XRaWU+GHEOOPqFPOorVao0rZKjtkvAva21tjSskxlM/AjeBO5VmxJYtW2T69OknRo0a9baAEPVlZWVlpydNmvTX9evXp9QlGvFcilZTUyMej0cTTRfveqrxkj6GnHaGHH1Cn7SX0+mM69lgLpdL9Ze9RiKRuO7EWFhYmNAdHwncBG4l++STT+QPf/iDXHzxxbOJNISoCyopKfnp8ePH5ejRo6rcEBUVFZpqPK2tL0NOu0OOPqFPupLL5RK/36+JdfX7/TxQl8Ct6cC9detWuf/+++vGjBmzk+4nRF3QyJEj/zp16tQTmzZtUt2lPH369NHE773+mdbWlyGn3SFHn9An7dW9e/eYX6u1O9nGs77x1JHATeBWus8++0yeeuopGThw4MN0MyHqW1188cU/27Fjh9TU1Ch+WeO5BG3IkCGabL5bb721U+rJkGPI0Sf0iVq0tLSIxWKJOVCo7fdw3yYYDMYcpCwWi+pvTEPg1k7g3rlzp8ybN89RUVGxgSlIiPpWY8aM2TNz5szPt27dqrohoEUNDQ2aXG+GnHaGHH1Cn7RXPFdeaK0PEllvNd+UhsCtncBdX18vjz/+uHzve997gihDiIrZd7/73Z9XVVXJmTNn2HpgyDHk6BP6RNV9kpOTE/NrtXqZdDzrHU89CdwEbqXas2ePzJ49u3XChAnL2LMiRMVs3Lhxzz388MPOl156SbHLGM+lZzfeeKOmG7CysrJT6sqQY8jRJ/RJqvdJOByO+UxaW1ubap4NlkidYu2H7t27q7ZOBG5tBO6mpiZ58sknZdiwYSuJMYSouF155ZXLHnroIVVcDqaVW65eiNrvJsaQ0+aQo0/ok47gdrtFp9PF9Fqv16vpWRLr+ut0OnG73aoMkgRubQTu/fv3yw9+8AO/zWZ7jBhDiIrbpEmTHp85c6b3wIEDbEEw5Bhy9Al9oso+iWeZtfrb2kTWX43/MwRubQRuj8cjVVVVct1116232+0h9qwIUQkZPnz4+sWLF6f0XZouu+wyOlBDGHLaGHL0CX3SUQwGQ0yvi0ajhKhgMObLNmOtK4GbwK20wP3qq6/K8OHDw/n5+fezV0WISlheXt79119/fejgwYMpW/x+/frRgSLyox/9SBPryZDTxpCjT+iTjmIymWJ6XTwPIFazWOsQa10J3ARuJQVur9crK1askJEjR2612+1t/McTohJmt9t9drt928qVK1P2aGwoxJlYEZHm5mZNrCdDTv1Djj6hTzpSRkZGTK/T8sPLE6lDrHUlcBO4lRS433rrLSkpKYn06NHjLrYgIardevTocVfv3r0j77zzDlsSDDmGHH1Cn6iqT8xmc8xhErHXIda6ErgJ3EoJ3IFAQFavXi3jxo37U2lpaRNbkBDVbqWlpY0VFRWvrV69miEChhxDjj6hT1TVJ0ajMabXafXmIonWIda6ErgJ3EoJ3IcPH5ZoNBrt1avXVLYeIarDFBUV/cTn80XfffddtiYYcgw5+oQ+UU2fxHoJYiQSoRHiqIMabyxB4FZv4A6Hw7J+/Xr50Y9+dKisrOwzth4hqsOUl5fX3HTTTe8999xzDBIw5Bhy9Al9opo+ifUujcy++OoQa10J3PSKEgL3e++9J7W1tVJcXMxvoQhRHa9v375Tjx07Jh9++CFbFAw5hhx9Qp+ook9ivWmGXq+nEeKoQ6x1JXDzvZHswB2NRmXjxo3y4x//+OjIkSO55IoQ1fFGjhz5lzvvvPPkxo0bVfnlCIYcQ065Q44+oU86S6x3cCVExVcHNd4Zl8CtzsD94Ycfyv79++Wiiy6awVYjRHWaAQMGzNi2bZt8+umnbFUw5Bhy9Al9kvJ9EutNM9LS0miEOOqgxpuyELjVGbi3bNkiM2fOrB09evQrbDVCVKcZM2bM7nvvvffcjh07UmJ5c3Jy6D6NYcipc8jRJ/RJZ4n19u3p6ek0Qhx1UOPjAQjc6gvcNTU1smrVKhkwYMAsthghqtNdfvnlv3jiiSfk888/V/yyejweyc3NpQNFJDMzUxPryZBT35CjT+iTzhTrg+TVeMvuRMRah1jrSuAmcCczcG/fvl0WLFjwxdixY3/PFiNEdbrx48eveuCBB9x79+5V/LJGIhHZtGkTHSgiv/+9Nr4fGHLqG3L0CX3Smfx+f0yvU+PDYxMRax1irSuBm8CdrMBdV1cnCxculEGDBs1jaxGiuszQoUOfnjdvnjQ18UBnMOQYcvQJfZK6fRLrJYg6nU7zoTo9PT3mm4eo8cYSBG51Be7du3fLz3/+85bx48evZmsRorqMzWZ7ZMqUKf5XXuE3eGDIMeToE/okdfsknks2CVHpnVJXAjeBu6s1NjbKwoUL5corr1zCNzwhqkvZ7fbItdde+8LixYvF7XYrfnm1fjR54MCBmllXhpx6hhx9Qp90BYvFEvNdBTMyMjTdC7GufzQaFYvForr1J3CrJ3Dv3btX7rzzTm9OTs6TxBRCVJfLz8+fcfXVV4fefPPNpHz+7t27Y35tqtxNsLM89dRTnVJXhhxDjj6hT1K9T9LS0uTcuXMxvTYzM1OzNxtJS0uL+QZF586dU2WdCNzqCNxOp1MWLVokI0aMWG2323kYICGq69nt9rbS0tI/rlixQpW3MgVDjiGXvCFHn9AnXcnlcsX8Wq1e2RDPesdTTwI3gbur63TgwAEpLy8P5ubmPsheEyEqaXr27PnvBQUF0cOHDyt+WUtKSjTZfFq5tTlDTl1Djj6hT7pSrJcravE7NZH1jqeeBG4Cd1dqbW2VqqoqsdvtG+12e0BAiEqW0tLSc+PHj39z3bp1SbkWPp5Lz1av1ubNV+K5tXmqX8rHkFPHkKNP6JOuZrPZYv59b2ZmpuYu8UxPT485RLndbrHZbKqtBYE7tQP366+/LldccUW4oKDgHuIJISrpiouLp9bX18v777+vqh0Cre0AMeQYckoZcvQJfZIMsZ6Z1GI/xLO+8dSRwE3g7srA7ff7ZdWqVTJq1KhddrvdQzwhRCVdeXn58SlTphzdsGGDRCLK/n2e1m4wodUbajDkUnfI0Sf0SSrIyckRk8mkiXU1mUySk5PDnhyBO+UD96FDhyQ3NzdaWFg4jS4mRClGv3797n7jjTfkxIkTXf7Z8V6CVlxcrImmu+yyyzq1jgw5hhx9Qp+oqU+sVqvU19fHFaT0enWPd71eH1eAqq+vF6vVyl4fgVtxgsGg/OY3v5HKysrXysrKvqAzCVGKMWrUqNemT59+asuWLYpf1rVr12qi6ZYtW8Z/HkMupYYcfUKfJJvT6Yz5tWazWbKyslRdj6ysrLgeOB1P/QjcBO6uDNzV1dXidDqlqKhoKtOMEKU4l1566exf/epX8tlnnyl+Wffs2aPqbaH29WPIqXPI0Sf0SbJ169ZNmpubY369zWaLK2SkErPZHNclms3NzdKtWzcCN4FbcYE7EonIhg0b5NZbbz1SXl5+QkCIUpqxY8f+bt68eY5du3Z1+WcncinaoUOHCFDtqB9DjiFHn9AnausTnU4nDQ0Ncb3HZrOp7vdy6enpcf/GraGhQdW3Nidwp27gPnr0qBw5ckRKSkruJpIQohRr8ODBC+fNmxfXkd1kKS4ultzcXFXV/zvf+Q7/bQy5lBxy9Al9ohQ2m00aGxvjChw5OTmqeZZYWlqa5OTkxBUMGxsbNXVjEQJ36gTuaDQqGzdulOnTp58YNWrU2+wZEaIUa+LEiUvnzJnj+dOf/tTlnx3v2ZT33ntPNm3apJovfpvNJmvWrOn0ujHkGHL0CX2i5j7R6/XicDjiek9mZqZYLJaUv9RTr9eLxWKJ+yYqDodD9Ze5ErhTM3CfOHFCdu7cKZdccsm9xBFClOINHTp0zYIFC6SlpUXxQUpEZPPmzaqoeyLroeYAxZBLnSFHn9AnSpOXlyenTp2K6z0Wi0Wys7NTNkzo9XrJzs4Wi8US1/tOnToleXl52ty5I3ArPnBv3bpVZs2aVTd69Oh9xBFClOLl5uY+OHHixMCrr76aMsuc6jdi4EYSDLlUHnL0CX2iRKFQSNra2uJ6j9VqTckgdT5AxXuDkLa2NgmFQpqeMQRu5Qbu2tpaWbZsmVx22WUPsTdEiEoJdrs9dP3117+4bNkyaW1t7fLPT/Tsyp49e1LuqKrNZks4QGnhLBRDjqPK9Al9kqicnBw5ffp03O+zWq2Sk5MjBoMhJdbTYDBITk5OQndYPH36NI9MIHArNnDv2LFDHn/88caKiooXiCKEqJRRUFBwz6BBg8JvvfVWUj4/0YCwefPmlHmgZs+ePRO+FFFLAYohp+whR5/QJ0oP1rW1tXG/z2KxSG5urhiNRkWvn9FolNzc3LhDtMjfjvJr9YALgVv5gbu+vl7mz58vgwcPnk+HpjadFlf6ueee++O6detGbt68OSkPqBw9enS73l9eXq7Y2rb38j0thiiRv11+NGDAgLjf53a7xePxpMSOo8FgSOjMgojIxx9/zE4RfUKffE1oNBqNUlhYGPd7w+GwtLS0xB3Mu0JmZqbYbLaEftdXX18vgUAgZQ46dhWPxyMlJSVxv8/n84nT6ZRAIKDowG21WhO6M2ltba1kZ2d36fI+++yz0tjY6FmyZImFzkxtei2udK9evf49IyMjeuTIkaR8fnuDwp49exR3FNFoNBKg2oGjyt885AhQ9Al98vVhw+12x3Ub/PPS0tIkLy9PrFarYs42GAwGsVqtkpeXl1CAam5uFrfbTYD6up09vT6hR7yYzWbJz89XbE0zMzMlPz8/oQBVX1/f5Wfpm5qaZPHixTJs2LDldGXq02l1xdesWfP2rl27hv3mN79J2l2s2ntGSkQZZ6U64uYRWg5Q53FU+euHHEeV6RP65Js5HA4pKipK+GHLoVBInE5nUvsiMzOzXYGutbVV6urqOODyLSEzPz8/4edQulwuaW1tVcQZbYPBIFlZWQlfhtfc3CyNjY1d/kzOLVu2yAcffOCvrKzMttvtIboyxQ9OaHXFi4uLf1JXVydHjx5N2jJ0RHD46KOPkrbjkJWVRYDq4J0Ijir/7yHHUWX6hD75dnl5eVJXVyderzfhbZCXlyd5eXliNpu77PlaOp1OzGbzPz470Z70er0EqBjk5ubKuXPnEr6xVk5OjhQUFCT9fy0zM1NCW8slAAALeklEQVQKCgoSDlCtra1y7ty5Lg9QLpdLFi1aJNdff/1zBCh10Gl55VesWPHhkSNHLl2yZElSH8rYEWekzuuKM1MdedtyAtRXcVSZo8r0CX2SaE8UFxdLRkZGu/5OOBwWj8cjPp+vU34LYzQaxWw2S3Z2druvBPF6vZq+c2ey+qStrU1aW1vF7/dLNBrtksBtMpkkKyurXSEumf2ya9cuefXVV0O33HKLxW63++hEQlRK27179w3Tpk078OKLL0r//v2TuiwdGaTOq6io6JABaDQaZceOHZ1Rf/4DGXLsFNEn9EkH90Tv3r077Mfy5+8K6ff7JRgMSjgcjvtvpKWlSXp6uphMJsnMzOyws6Aej0fOnDlDDxC4Ff+d4fV6paKiQmbPnv3iLbfcMpkOJESpwpNPPlnX0NDQ+8EHH0z6snRGkDrv0ksvlYEDB8Z01NlqtcqBAwekoaGhMwMs/30MOXaM6RP6pBM0NTX94xK5jhYKhcTv90sgEJBwOCzhcFgikYhEIhHR6/Wi1+slLS1N0tLSxGg0islk6pRLRx0OhzgcDunWrRsbnMCt+MC9f/9+2bx5c2T69OkFpaWlTXQfIUoVtm/fPmXcuHHrjxw5In369FF1kFIKAhRDTolDjj6hT9TE6XSKyWSSoqIi1a1bXV2d+P3+hJ4JBAJ3VwsEAnLLLbfIbbfdtveOO+4op+sIUaryyCOPNJnN5txp06YpYnnUHKQIUAw5JQ45+oQ+UaNAICBer1f69eunmnWqqamRjIwMxd+un8BN4D7vjTfekOXLl0cfeuihvmVlZZ/RcYQoVdm6devDlZWVTxw7dky6d++umOVSU5giPDHklDzk6BP6hICtbARoAncqBu5wOCx33XWXjBw58q2pU6d+n05TFz0lEKmsrPzlfffd13bgwAGCB+uhSFarVfR6vdTU1KhqvWpqakSv17NjTJ/QJ52oW7du4vV6U7YvampqxOv1EqA6kdFoFKvVKidOnBCHw5HS6+JwOOTEiRNitVqTfsby3XffldraWunTp890ukx9OBP1dy+++OKvZs6cec/rr7+uyEGdimelCE+dg6PKoE+QqJaWFjGZTIr4DfC3OX36tPj9frHZbGy4LuTz+cTv96fkWamamhoxmUxiNpuTviyRSETuv/9+ufrqqz+45557BtNZhCjVevnll42bN2/2jBgxIn3MmDGKXc5UCFOEJ4Zcqgw5+oQ+0XLIzsjIUGSYOn36NGeeCNwpH7iPHTsmd9xxh6xateraUaNGHaSjCFGq9sILL2xetGjRjbt27Ur6E7lTMUwRnhhyqTbk6BP6ROucTqfo9XopKiqS9PT0pC1HMBiUuro6iUQiXLZJ4FZF4J47d67069fv5KxZs/rRRYQo1du3b59tzZo1jhtvvFF/ww03pMQyKyFMEZ4Ycqk65OgT+gR/4/f7xePxiMVikV69enXZ5549e1bcbrdkZ2eLyWRiQxC4VRG4/+u//kuuvvpq2blz54SxY8duo3sIUZqwbt26P23cuPH/bNiwIalfEkoPVAQnhlyqDzn6hD7BNwcqo9EoNptNcnNzO+xvNzc3S0tLiwQCAYITgVu1gXvp0qWSk5NT//DDD/ekYwhRmrF3796+TzzxRM0DDzyg+9d//deUXpeODFWEJoac2oYc6BPE3idtbW0SjUbFYDCI2WwWs9ksJpNJjEajGAwG0el0Eo1GJRQKSSAQEL/fLz6fT3w+n4RCIdHpdJKZmcn2JnCrPnCfPn1arrzyStm2bdtPx48fv4YuIURpyq9//eu/vvLKK1c+/fTTotdzF3gw5NQ25ECfACBwd4bVq1eL3+9vXrBgAdcmq5yBEnxV3759f/r000+/c/z4cRk0aBAFQUozmUz/GEbhcFjOnDnToUPOYrFQZPqEPgHwv75HzotEIuL1esXr9V7wfUajMenPdOoIDQ0N8uSTT8rzzz+/hG5QP85EXcCyZcs+OX78+MVPPPGE6HSUCQAAABf2wgsvSG1trXfMmDHZdrs9QkXUjWvVLuCSSy752fbt2+XkyZMUAwAAABfkdDpl8eLFcs011/yaAEWI0rQxY8b88Wc/+1n91q1bKQYAAAAuaP/+/VJeXh7Mzc19mGoQojRv0KBBP1+yZImcPXuWYgAAAOArPB6PLF26VOx2+wt2uz1ARQhRmjdu3LhnH3roIddLL71EMQAAAPAVBw8elKuuuipcUFAwg2oQovB3V1111fL58+eLw+GgGAAAAPgHv98vq1atkpEjR+602+0eKkKIwt9ZrdbHb7/9dt+BAwcoBgAAAP7h7bffltzc3GiPHj1+SjUIUfgndrs9MmLEiOerqqrE7XZTEAAAAEgwGJRnnnlGJk2a9GpZWdkXVIQQhS/Jz8+/75prrgkdPHiQYgAAAECOHDkiTqdTevfuzVkoQhS+jt1ub7Pb7TtXrFghPp+PggAAAGhYJBKRDRs2yG233Xa4vLz8BBUhROECCgsLp/bs2TPyzjvvUAwAAAAN++CDD6S6ulq+853v3EM1CFH4BqWlpY3jx48/uGbNGgkGgxQEAABAg6LRqGzatEnuvvvuj0aNGnWIihCi8C2Kiop+4na75f3336cYAAAAGnTixAnZu3evXHzxxT+jGoQoxKC8vPyTm2+++f3nnntOIpEIBQEAANCYrVu3yowZM06PHj16H9UgRCFGF1100dTq6mr56KOPKAYAAICG1NbWyrJly+TSSy99mGpom44SxK+qqurTTz/9tGTevHkUAwAAQCNWrFgh6enpjXPnzi2gGtrGmagEDBgwYNaqVavk008/pRgAAAAaUF9fLwsWLJDBgwf/gmqAM1EJ+sUvfnEuGAwWzJgxg2IAAACo3Lp168ThcHiWLFlioRrgTFSCLr/88gXz58+Xzz//nGIAAACoWFNTkyxZskSGDRv2FNUAIaodJkyYsHLOnDnuffu4MQsAAICa7du3T374wx/6rVbrfKoBQlQ7/cu//Muv586dK01NTRQDAABAhVwulyxZskSuu+66Z+x2e4iKQETEQAkSZ7PZHr7ttttm/vnPfzZNmDCBggBAFwiFQhIOhzW7/n6/X7PrHg6HJRgManrbR6NRTa57JBJJWu+/8847csMNN4Ty8vJm8w0MQlQHsNvtkY0bN25esGDBlLa2tqR9oWp5oDqdTs0++DgYDIrL5dLstm9qahKv16vZbf/aa69p+vt36NChkpeXF9Xq+hcWFoZ1Op0m199kMkUzMzM1ezYgKyvLn5aWpsltr9frI2az2ZeMzx49evRmu93uE+DvuDtfO+3bty+npaVlXpK/VFr1er1bq9sgLS3tC51Op8nD0jqdzqfX6xs0vO0bdDqdV6OrHyorKzvNtzAAAAAAAAAAAAAAAAAAAAAAAAAAAAAAAAAAAAAAAAAAAAAAAAAAAAAAAAAAAAAAAAAAAAAAAAAAAAAAAAAAAAAAAAAAAAAAAAAAAAAAAAAAAAAAAAAAAAAAAAAAAAAAAAAAAAAAAAAAAAAAAAAAAAAAAAAAAAAAAAAAAAAAAAAAAAAAAAAAAAAAAAAAAAAAAAAAAAAAAAAAAAAAAAAAAAAAAAAAAAAAAAAAAAAAAAAAAAAAAAAAAAAAAAAAAAAAAAAAAAAAAAAAAAAAAAAAAAAAAAAAAAAAAAAAAAAAAAAAAAAAAAAAAAAAAAAAAAAAAAAAAAAAAAAAAAAAAAAAAAAAAAAAAAAAAAAAAAAAAAAAAAAAAAAAAAAAAAAAAAAAAAAAAAAAAAAAAAAAAAAAAAAAAAAAAAAAAAAAAAAAAAAAAAAAAAAAAAAAAAAAAAAAAAAAAAAAAAAAAAAAAAAAAAAAAAAAAAAAAAAAAAAAAAAAAAAAAAAAAAAAAAAAAAAAAAAAAAAAAAAAAAAAAAAAAAAAAAAAAAAAAN/kvwF328nKL/kIQgAAAABJRU5ErkJggg==;" vertex="1" parent="1">
          <mxGeometry x="10" y="20" width="482.09" height="180" as="geometry" />
        </mxCell>
        <mxCell id="WngwBCl97LLkA2d_fZeR-14" style="edgeStyle=orthogonalEdgeStyle;rounded=0;orthogonalLoop=1;jettySize=auto;html=1;exitX=0.5;exitY=1;exitDx=0;exitDy=0;endArrow=none;endFill=0;" edge="1" parent="1" source="WngwBCl97LLkA2d_fZeR-4" target="WngwBCl97LLkA2d_fZeR-13">
          <mxGeometry relative="1" as="geometry" />
        </mxCell>
        <mxCell id="WngwBCl97LLkA2d_fZeR-4" value="" style="ellipse;whiteSpace=wrap;html=1;aspect=fixed;fillColor=none;strokeColor=none;" vertex="1" parent="1">
          <mxGeometry x="60" y="80" width="40" height="40" as="geometry" />
        </mxCell>
        <mxCell id="WngwBCl97LLkA2d_fZeR-16" style="edgeStyle=orthogonalEdgeStyle;rounded=0;orthogonalLoop=1;jettySize=auto;html=1;exitX=0.5;exitY=1;exitDx=0;exitDy=0;endArrow=none;endFill=0;" edge="1" parent="1" source="WngwBCl97LLkA2d_fZeR-7" target="WngwBCl97LLkA2d_fZeR-15">
          <mxGeometry relative="1" as="geometry" />
        </mxCell>
        <mxCell id="WngwBCl97LLkA2d_fZeR-7" value="" style="ellipse;whiteSpace=wrap;html=1;aspect=fixed;fillColor=none;strokeColor=none;" vertex="1" parent="1">
          <mxGeometry x="130" y="80" width="40" height="40" as="geometry" />
        </mxCell>
        <mxCell id="WngwBCl97LLkA2d_fZeR-19" style="edgeStyle=orthogonalEdgeStyle;rounded=0;orthogonalLoop=1;jettySize=auto;html=1;exitX=0.5;exitY=1;exitDx=0;exitDy=0;entryX=0.5;entryY=0;entryDx=0;entryDy=0;endArrow=none;endFill=0;" edge="1" parent="1" source="WngwBCl97LLkA2d_fZeR-8" target="WngwBCl97LLkA2d_fZeR-17">
          <mxGeometry relative="1" as="geometry" />
        </mxCell>
        <mxCell id="WngwBCl97LLkA2d_fZeR-8" value="" style="ellipse;whiteSpace=wrap;html=1;aspect=fixed;fillColor=none;strokeColor=none;" vertex="1" parent="1">
          <mxGeometry x="210" y="80" width="40" height="40" as="geometry" />
        </mxCell>
        <mxCell id="WngwBCl97LLkA2d_fZeR-21" style="edgeStyle=orthogonalEdgeStyle;rounded=0;orthogonalLoop=1;jettySize=auto;html=1;exitX=0.5;exitY=1;exitDx=0;exitDy=0;entryX=0.5;entryY=0;entryDx=0;entryDy=0;endArrow=none;endFill=0;" edge="1" parent="1" source="WngwBCl97LLkA2d_fZeR-9" target="WngwBCl97LLkA2d_fZeR-20">
          <mxGeometry relative="1" as="geometry" />
        </mxCell>
        <mxCell id="WngwBCl97LLkA2d_fZeR-9" value="" style="ellipse;whiteSpace=wrap;html=1;aspect=fixed;fillColor=none;strokeColor=none;" vertex="1" parent="1">
          <mxGeometry x="280" y="80" width="40" height="40" as="geometry" />
        </mxCell>
        <mxCell id="WngwBCl97LLkA2d_fZeR-23" style="edgeStyle=orthogonalEdgeStyle;rounded=0;orthogonalLoop=1;jettySize=auto;html=1;exitX=0.5;exitY=1;exitDx=0;exitDy=0;entryX=0.5;entryY=0;entryDx=0;entryDy=0;endArrow=none;endFill=0;" edge="1" parent="1" source="WngwBCl97LLkA2d_fZeR-10" target="WngwBCl97LLkA2d_fZeR-22">
          <mxGeometry relative="1" as="geometry" />
        </mxCell>
        <mxCell id="WngwBCl97LLkA2d_fZeR-10" value="" style="ellipse;whiteSpace=wrap;html=1;aspect=fixed;fillColor=none;strokeColor=none;" vertex="1" parent="1">
          <mxGeometry x="360" y="80" width="40" height="40" as="geometry" />
        </mxCell>
        <mxCell id="WngwBCl97LLkA2d_fZeR-13" value="Mode 0" style="text;html=1;strokeColor=none;fillColor=none;align=center;verticalAlign=middle;whiteSpace=wrap;rounded=0;" vertex="1" parent="1">
          <mxGeometry x="50" y="180" width="60" height="30" as="geometry" />
        </mxCell>
        <mxCell id="WngwBCl97LLkA2d_fZeR-15" value="&lt;div&gt;Go to high position&lt;/div&gt;" style="text;html=1;strokeColor=none;fillColor=none;align=center;verticalAlign=middle;whiteSpace=wrap;rounded=0;" vertex="1" parent="1">
          <mxGeometry x="120" y="180" width="60" height="30" as="geometry" />
        </mxCell>
        <mxCell id="WngwBCl97LLkA2d_fZeR-17" value="Go to low position" style="text;html=1;strokeColor=none;fillColor=none;align=center;verticalAlign=middle;whiteSpace=wrap;rounded=0;" vertex="1" parent="1">
          <mxGeometry x="200" y="180" width="60" height="30" as="geometry" />
        </mxCell>
        <mxCell id="WngwBCl97LLkA2d_fZeR-20" value="Go up" style="text;html=1;strokeColor=none;fillColor=none;align=center;verticalAlign=middle;whiteSpace=wrap;rounded=0;" vertex="1" parent="1">
          <mxGeometry x="270" y="180" width="60" height="30" as="geometry" />
        </mxCell>
        <mxCell id="WngwBCl97LLkA2d_fZeR-22" value="Go down" style="text;html=1;strokeColor=none;fillColor=none;align=center;verticalAlign=middle;whiteSpace=wrap;rounded=0;" vertex="1" parent="1">
          <mxGeometry x="350" y="180" width="60" height="30" as="geometry" />
        </mxCell>
        <mxCell id="WngwBCl97LLkA2d_fZeR-56" style="edgeStyle=orthogonalEdgeStyle;rounded=0;orthogonalLoop=1;jettySize=auto;html=1;exitX=0.5;exitY=1;exitDx=0;exitDy=0;endArrow=none;endFill=0;" edge="1" parent="1" source="WngwBCl97LLkA2d_fZeR-57" target="WngwBCl97LLkA2d_fZeR-66">
          <mxGeometry relative="1" as="geometry" />
        </mxCell>
        <mxCell id="WngwBCl97LLkA2d_fZeR-57" value="" style="ellipse;whiteSpace=wrap;html=1;aspect=fixed;fillColor=none;strokeColor=none;" vertex="1" parent="1">
          <mxGeometry x="60" y="250" width="40" height="40" as="geometry" />
        </mxCell>
        <mxCell id="WngwBCl97LLkA2d_fZeR-58" style="edgeStyle=orthogonalEdgeStyle;rounded=0;orthogonalLoop=1;jettySize=auto;html=1;exitX=0.5;exitY=1;exitDx=0;exitDy=0;endArrow=none;endFill=0;" edge="1" parent="1" source="WngwBCl97LLkA2d_fZeR-59" target="WngwBCl97LLkA2d_fZeR-67">
          <mxGeometry relative="1" as="geometry" />
        </mxCell>
        <mxCell id="WngwBCl97LLkA2d_fZeR-59" value="" style="ellipse;whiteSpace=wrap;html=1;aspect=fixed;fillColor=none;strokeColor=none;" vertex="1" parent="1">
          <mxGeometry x="130" y="250" width="40" height="40" as="geometry" />
        </mxCell>
        <mxCell id="WngwBCl97LLkA2d_fZeR-60" style="edgeStyle=orthogonalEdgeStyle;rounded=0;orthogonalLoop=1;jettySize=auto;html=1;exitX=0.5;exitY=1;exitDx=0;exitDy=0;entryX=0.5;entryY=0;entryDx=0;entryDy=0;endArrow=none;endFill=0;" edge="1" parent="1" source="WngwBCl97LLkA2d_fZeR-61" target="WngwBCl97LLkA2d_fZeR-68">
          <mxGeometry relative="1" as="geometry" />
        </mxCell>
        <mxCell id="WngwBCl97LLkA2d_fZeR-61" value="" style="ellipse;whiteSpace=wrap;html=1;aspect=fixed;fillColor=none;strokeColor=none;" vertex="1" parent="1">
          <mxGeometry x="210" y="250" width="40" height="40" as="geometry" />
        </mxCell>
        <mxCell id="WngwBCl97LLkA2d_fZeR-62" style="edgeStyle=orthogonalEdgeStyle;rounded=0;orthogonalLoop=1;jettySize=auto;html=1;exitX=0.5;exitY=1;exitDx=0;exitDy=0;entryX=0.5;entryY=0;entryDx=0;entryDy=0;endArrow=none;endFill=0;" edge="1" parent="1" source="WngwBCl97LLkA2d_fZeR-63" target="WngwBCl97LLkA2d_fZeR-69">
          <mxGeometry relative="1" as="geometry" />
        </mxCell>
        <mxCell id="WngwBCl97LLkA2d_fZeR-63" value="" style="ellipse;whiteSpace=wrap;html=1;aspect=fixed;fillColor=none;strokeColor=none;" vertex="1" parent="1">
          <mxGeometry x="280" y="250" width="40" height="40" as="geometry" />
        </mxCell>
        <mxCell id="WngwBCl97LLkA2d_fZeR-64" style="edgeStyle=orthogonalEdgeStyle;rounded=0;orthogonalLoop=1;jettySize=auto;html=1;exitX=0.5;exitY=1;exitDx=0;exitDy=0;entryX=0.5;entryY=0;entryDx=0;entryDy=0;endArrow=none;endFill=0;" edge="1" parent="1" source="WngwBCl97LLkA2d_fZeR-65" target="WngwBCl97LLkA2d_fZeR-70">
          <mxGeometry relative="1" as="geometry" />
        </mxCell>
        <mxCell id="WngwBCl97LLkA2d_fZeR-65" value="" style="ellipse;whiteSpace=wrap;html=1;aspect=fixed;fillColor=none;strokeColor=none;" vertex="1" parent="1">
          <mxGeometry x="360" y="250" width="40" height="40" as="geometry" />
        </mxCell>
        <mxCell id="WngwBCl97LLkA2d_fZeR-66" value="Mode 1" style="text;html=1;strokeColor=none;fillColor=none;align=center;verticalAlign=middle;whiteSpace=wrap;rounded=0;" vertex="1" parent="1">
          <mxGeometry x="50" y="350" width="60" height="30" as="geometry" />
        </mxCell>
        <mxCell id="WngwBCl97LLkA2d_fZeR-67" value="Save high position" style="text;html=1;strokeColor=none;fillColor=none;align=center;verticalAlign=middle;whiteSpace=wrap;rounded=0;" vertex="1" parent="1">
          <mxGeometry x="120" y="350" width="60" height="30" as="geometry" />
        </mxCell>
        <mxCell id="WngwBCl97LLkA2d_fZeR-68" value="Save low position" style="text;html=1;strokeColor=none;fillColor=none;align=center;verticalAlign=middle;whiteSpace=wrap;rounded=0;" vertex="1" parent="1">
          <mxGeometry x="200" y="350" width="60" height="30" as="geometry" />
        </mxCell>
        <mxCell id="WngwBCl97LLkA2d_fZeR-69" value="Go up left motor" style="text;html=1;strokeColor=none;fillColor=none;align=center;verticalAlign=middle;whiteSpace=wrap;rounded=0;" vertex="1" parent="1">
          <mxGeometry x="270" y="350" width="60" height="30" as="geometry" />
        </mxCell>
        <mxCell id="WngwBCl97LLkA2d_fZeR-70" value="Go down left motor" style="text;html=1;strokeColor=none;fillColor=none;align=center;verticalAlign=middle;whiteSpace=wrap;rounded=0;" vertex="1" parent="1">
          <mxGeometry x="350" y="350" width="60" height="30" as="geometry" />
        </mxCell>
        <mxCell id="WngwBCl97LLkA2d_fZeR-73" value="" style="ellipse;whiteSpace=wrap;html=1;aspect=fixed;fillColor=none;strokeColor=none;" vertex="1" parent="1">
          <mxGeometry x="50" y="420" width="40" height="40" as="geometry" />
        </mxCell>
        <mxCell id="WngwBCl97LLkA2d_fZeR-75" value="" style="ellipse;whiteSpace=wrap;html=1;aspect=fixed;fillColor=none;strokeColor=none;" vertex="1" parent="1">
          <mxGeometry x="120" y="420" width="40" height="40" as="geometry" />
        </mxCell>
        <mxCell id="WngwBCl97LLkA2d_fZeR-77" value="" style="ellipse;whiteSpace=wrap;html=1;aspect=fixed;fillColor=none;strokeColor=none;" vertex="1" parent="1">
          <mxGeometry x="200" y="420" width="40" height="40" as="geometry" />
        </mxCell>
        <mxCell id="WngwBCl97LLkA2d_fZeR-79" value="" style="ellipse;whiteSpace=wrap;html=1;aspect=fixed;fillColor=none;strokeColor=none;" vertex="1" parent="1">
          <mxGeometry x="270" y="420" width="40" height="40" as="geometry" />
        </mxCell>
        <mxCell id="WngwBCl97LLkA2d_fZeR-81" value="" style="ellipse;whiteSpace=wrap;html=1;aspect=fixed;fillColor=none;strokeColor=none;" vertex="1" parent="1">
          <mxGeometry x="350" y="420" width="40" height="40" as="geometry" />
        </mxCell>
        <mxCell id="WngwBCl97LLkA2d_fZeR-82" value="Emergency stop: press continued" style="text;html=1;strokeColor=none;fillColor=none;align=center;verticalAlign=middle;whiteSpace=wrap;rounded=0;" vertex="1" parent="1">
          <mxGeometry x="50" y="520" width="210" height="30" as="geometry" />
        </mxCell>
        <mxCell id="WngwBCl97LLkA2d_fZeR-90" style="edgeStyle=orthogonalEdgeStyle;rounded=0;orthogonalLoop=1;jettySize=auto;html=1;exitX=0.5;exitY=1;exitDx=0;exitDy=0;entryX=0.097;entryY=0;entryDx=0;entryDy=0;entryPerimeter=0;endArrow=none;endFill=0;" edge="1" parent="1" source="WngwBCl97LLkA2d_fZeR-73" target="WngwBCl97LLkA2d_fZeR-82">
          <mxGeometry relative="1" as="geometry" />
        </mxCell>
        <mxCell id="WngwBCl97LLkA2d_fZeR-92" value="" style="shape=image;html=1;verticalAlign=top;verticalLabelPosition=bottom;labelBackgroundColor=#ffffff;imageAspect=0;aspect=fixed;image=https://cdn1.iconfinder.com/data/icons/ui-essential-17/32/UI_Essential_Outline_1_essential-app-ui-creative-idea-lamp-128.png" vertex="1" parent="1">
          <mxGeometry x="10" y="120" width="30" height="30" as="geometry" />
        </mxCell>
        <mxCell id="WngwBCl97LLkA2d_fZeR-93" value="&lt;div&gt;Led OFF&lt;/div&gt;" style="text;html=1;strokeColor=none;fillColor=none;align=center;verticalAlign=middle;whiteSpace=wrap;rounded=0;" vertex="1" parent="1">
          <mxGeometry x="-5" y="150" width="60" height="30" as="geometry" />
        </mxCell>
        <mxCell id="WngwBCl97LLkA2d_fZeR-94" value="" style="shape=image;html=1;verticalAlign=top;verticalLabelPosition=bottom;labelBackgroundColor=#ffffff;imageAspect=0;aspect=fixed;image=https://cdn1.iconfinder.com/data/icons/ui-essential-17/32/UI_Essential_Outline_1_essential-app-ui-creative-idea-lamp-128.png" vertex="1" parent="1">
          <mxGeometry x="10" y="300" width="30" height="30" as="geometry" />
        </mxCell>
        <mxCell id="WngwBCl97LLkA2d_fZeR-95" value="&lt;div&gt;Led ON&lt;/div&gt;" style="text;html=1;strokeColor=none;fillColor=none;align=center;verticalAlign=middle;whiteSpace=wrap;rounded=0;" vertex="1" parent="1">
          <mxGeometry x="-5" y="330" width="60" height="30" as="geometry" />
        </mxCell>
      </root>
    </mxGraphModel>
  </diagram>
</mxfile>
